<svg width="44" height="47" viewBox="0 0 44 47" fill="none" xmlns="http://www.w3.org/2000/svg">
<g filter="url(#filter0_f_184_10)">
<path d="M39.1181 14.2401C39.9296 29.2951 35.4035 28.3517 32.2206 30.4714C32.0567 31.6588 32.7346 32.1757 33.1234 32.0737C30.4612 33.9108 24.504 30.5405 23.6752 30.7288C25.436 31.9307 26.0306 33.4387 26.2216 34.3811C23.3086 31.0585 18.2622 31.9449 16.4654 32.9418C16.4326 29.6906 17.0754 22.4767 19.9089 19.6312L19.2059 22.3968C20.2562 19.4411 24.1982 13.9165 31.5632 15.4636L31.8713 15.5579L32.0254 15.6051L30.625 17.6074C40.6893 19.1409 38.7438 13.4625 39.1181 14.2401Z" fill="#E60000"/>
<path d="M39.1181 14.2401C39.9296 29.2951 35.4035 28.3517 32.2206 30.4714C32.0567 31.6588 32.7346 32.1757 33.1234 32.0737C30.4612 33.9108 24.504 30.5405 23.6752 30.7288C25.436 31.9307 26.0306 33.4387 26.2216 34.3811C23.3086 31.0585 18.2622 31.9449 16.4654 32.9418C16.4326 29.6906 17.0754 22.4767 19.9089 19.6312L19.2059 22.3968C20.2562 19.4411 24.1982 13.9165 31.5632 15.4636L31.8713 15.5579L32.0254 15.6051L30.625 17.6074C40.6893 19.1409 38.7438 13.4625 39.1181 14.2401Z" fill="url(#paint0_linear_184_10)"/>
</g>
<path d="M38.2694 13.3974C39.0808 28.4524 34.5547 27.5091 31.3719 29.6288C31.2079 30.8162 31.8859 31.333 32.2746 31.231C29.6125 33.0681 23.6553 29.6978 22.8265 29.8861C24.5873 31.088 25.1819 32.596 25.3729 33.5384C22.4598 30.2159 17.4135 31.1022 15.6166 32.0992C15.5839 28.8479 16.2267 21.634 19.0601 18.7886L18.3571 21.5541C19.4075 18.5984 23.3495 13.0738 30.7145 14.6209L31.0226 14.7153L31.1766 14.7624L29.7762 16.7647C39.8406 18.2982 37.895 12.6199 38.2694 13.3974Z" fill="#FF0202"/>
<path d="M38.2694 13.3974C39.0808 28.4524 34.5547 27.5091 31.3719 29.6288C31.2079 30.8162 31.8859 31.333 32.2746 31.231C29.6125 33.0681 23.6553 29.6978 22.8265 29.8861C24.5873 31.088 25.1819 32.596 25.3729 33.5384C22.4598 30.2159 17.4135 31.1022 15.6166 32.0992C15.5839 28.8479 16.2267 21.634 19.0601 18.7886L18.3571 21.5541C19.4075 18.5984 23.3495 13.0738 30.7145 14.6209L31.0226 14.7153L31.1766 14.7624L29.7762 16.7647C39.8406 18.2982 37.895 12.6199 38.2694 13.3974Z" fill="url(#paint1_linear_184_10)"/>
<g filter="url(#filter1_f_184_10)">
<path d="M15.2541 38.8817C15.1427 38.8639 15.025 38.8615 14.9012 38.8745C14.7943 38.882 14.6767 38.8796 14.5482 38.8673L14.6966 38.9403C14.6284 38.9622 14.5556 38.9588 14.4783 38.93C14.4226 38.9211 14.3715 38.9376 14.3249 38.9794L13.8048 38.9454L13.7724 38.9156C13.686 38.8362 13.6019 38.7694 13.52 38.7152C13.4382 38.6611 13.3421 38.6786 13.2319 38.7676C13.2705 38.782 13.3069 38.7837 13.341 38.7728C13.3751 38.7618 13.4052 38.779 13.4314 38.8242L13.3802 38.8406C13.312 38.8625 13.2563 38.8536 13.2131 38.8139C13.1699 38.7742 13.1182 38.7372 13.058 38.7029C12.7612 38.557 12.4833 38.3648 12.224 38.1263L12.2172 38.0883C12.1262 37.9835 12.0523 37.8731 11.9955 37.7573C11.934 37.6162 11.8539 37.5213 11.755 37.4727L11.7294 37.4809C11.6509 37.3452 11.5702 37.1969 11.4872 37.0358C11.4166 36.844 11.3484 36.6648 11.2824 36.4983C11.2688 36.4223 11.2489 36.3616 11.2227 36.3164C11.209 36.2403 11.1954 36.1643 11.1817 36.0882C11.1635 35.9868 11.1476 35.8981 11.1339 35.822C11.1327 35.7151 11.1316 35.6082 11.1304 35.5014C11.0543 35.5795 11.0048 35.5551 10.9821 35.4284C10.9149 35.155 10.8563 34.8789 10.8062 34.6C10.7732 34.3156 10.7441 34.0032 10.719 33.6626L10.6933 33.0675C10.7046 32.9298 10.7398 32.8246 10.7989 32.752C10.858 32.6794 10.8677 32.5824 10.8278 32.4611C10.8108 32.4666 10.796 32.4848 10.7835 32.5156C10.771 32.5464 10.7477 32.5673 10.7136 32.5783C10.7136 32.5783 10.7051 32.581 10.6881 32.5865C10.6835 32.5612 10.679 32.5358 10.6744 32.5105L10.7 32.5023L10.6931 32.4642C10.6715 32.4444 10.6693 32.4317 10.6863 32.4262C10.7034 32.4207 10.7011 32.408 10.6795 32.3882L10.6727 32.3501C10.6499 32.2234 10.6527 32.0884 10.6811 31.9452C10.7049 31.7766 10.7202 31.6108 10.727 31.4477C10.7383 31.31 10.769 31.1795 10.819 31.0561C10.886 30.9273 10.8888 30.7923 10.8274 30.6512L10.7507 30.6759C10.7927 30.6087 10.8092 30.5498 10.8001 30.4991L10.8188 30.4528L10.9311 29.572L10.9567 29.5638C11.0931 29.5199 11.1436 29.45 11.1084 29.3541C11.0902 29.2527 11.0697 29.1386 11.0469 29.0119L11.0401 28.9738L11.1559 28.4137C11.2445 28.3047 11.2922 28.1687 11.299 28.0056C11.3012 27.8172 11.3273 27.6613 11.3773 27.538C11.3886 27.4003 11.4216 27.2824 11.4761 27.1844C11.5261 27.0611 11.5653 26.9278 11.5936 26.7846C11.6595 26.5489 11.7277 26.3259 11.7981 26.1155C11.8639 25.8798 11.9406 25.654 12.0281 25.4382C12.1042 25.3601 12.1525 25.2775 12.1729 25.1905C12.1934 25.1035 12.2201 25.001 12.253 24.8832C12.2485 24.8578 12.2462 24.8451 12.2462 24.8451C12.2632 24.8397 12.2695 24.8242 12.2649 24.7989C12.2979 24.681 12.3547 24.5957 12.4354 24.543C12.516 24.4902 12.5621 24.395 12.5734 24.2572C12.5847 24.1195 12.6154 23.989 12.6654 23.8656C12.7653 23.619 12.8761 23.3822 12.9977 23.1554C13.1147 22.9033 13.234 22.6638 13.3555 22.437C13.4533 22.3788 13.5254 22.3287 13.572 22.2869C13.6141 22.2198 13.6214 22.1102 13.5941 21.958L13.6197 21.9498C13.7708 21.6867 13.9242 21.4363 14.0799 21.1985C14.2355 20.9607 14.3849 20.7384 14.5281 20.5314C14.6417 20.3608 14.7491 20.2056 14.8503 20.0658C14.9684 19.9206 15.0781 19.7781 15.1792 19.6383L15.2559 19.6136C15.3241 19.5917 15.3707 19.5499 15.3957 19.4882C15.4207 19.4265 15.4519 19.3495 15.4894 19.257L15.515 19.2487C16.6264 18.0065 17.7191 17.2126 18.7932 16.8673C18.9296 16.8234 19.0768 16.7895 19.2348 16.7655C19.3882 16.7162 19.5354 16.6823 19.6764 16.6638C20.505 16.5582 21.1808 16.7566 21.7038 17.2588C22.2223 17.7357 22.5475 18.3417 22.6796 19.077C22.7251 19.3305 22.7473 19.6049 22.7463 19.9002C22.8849 19.6679 23.0065 19.4411 23.111 19.2198C23.2155 18.9985 23.2899 18.76 23.3342 18.5045C23.3546 18.4174 23.3927 18.3784 23.4484 18.3873C23.4995 18.3708 23.5149 18.4061 23.4944 18.4932C23.4843 18.7378 23.419 19.0269 23.2986 19.3606C23.1736 19.669 23.0271 19.9574 22.8589 20.226C22.8635 20.2514 22.8368 20.3538 22.7788 20.5333C22.7164 20.6875 22.6982 20.7872 22.7244 20.8324C22.7289 20.8578 22.7124 20.9167 22.675 21.0092C22.65 21.0709 22.6335 21.1298 22.6256 21.186L22.508 21.5858C22.508 21.5858 22.5103 21.5985 22.5148 21.6238C22.5148 21.6238 22.5086 21.6393 22.4961 21.6701C22.4961 21.6701 22.4666 21.7064 22.4075 21.779C22.3825 21.8407 22.3473 21.9459 22.3018 22.0946C22.2735 22.2378 22.2212 22.3484 22.1451 22.4266L22.0564 22.5355C22.0439 22.5663 22.0337 22.6098 22.0258 22.666C22.0133 22.6969 21.9945 22.7431 21.9695 22.8048C21.9195 22.9281 21.8144 23.096 21.6542 23.3084C21.5065 23.49 21.3991 23.6452 21.3321 23.774C21.3321 23.774 21.3173 23.7922 21.2878 23.8285C21.2582 23.8648 21.2224 23.9165 21.1804 23.9837L21.1105 24.0464C21.0935 24.0519 21.0639 24.0882 21.0219 24.1553C20.9969 24.217 20.9781 24.2632 20.9656 24.2941C20.9531 24.3249 20.9299 24.3458 20.8958 24.3568C20.8787 24.3623 20.8577 24.3958 20.8327 24.4575C20.8202 24.4883 20.7969 24.5092 20.7628 24.5202C20.7287 24.5312 20.6992 24.5675 20.6742 24.6291L20.3179 24.9046C20.3054 24.9354 20.2633 25.0026 20.1918 25.1061C20.1327 25.1787 20.0946 25.2177 20.0776 25.2232L20.0264 25.2397C20.0094 25.2452 19.9946 25.2633 19.9821 25.2941C19.9866 25.3195 19.9719 25.3377 19.9378 25.3486C19.9253 25.3795 19.902 25.4004 19.8679 25.4113C19.8463 25.3914 19.8207 25.3997 19.7912 25.436C19.7741 25.4415 19.7531 25.475 19.7281 25.5367C19.7156 25.5675 19.7008 25.5857 19.6838 25.5912L19.6071 25.6159L19.4741 25.7793C19.4105 25.8266 19.336 25.8639 19.2508 25.8913C19.1826 25.9132 19.1104 25.9633 19.0343 26.0414C19.0172 26.0469 18.9809 26.0451 18.9252 26.0362C18.8865 26.0218 18.8501 26.0201 18.816 26.0311C18.6762 26.1565 18.5296 26.2439 18.3762 26.2932C18.3637 26.324 18.3466 26.3295 18.325 26.3096C18.3205 26.2843 18.3097 26.2744 18.2926 26.2798C18.2756 26.2853 18.2693 26.3007 18.2739 26.3261C18.2739 26.3261 18.2654 26.3288 18.2483 26.3343C18.2483 26.3343 18.2228 26.3425 18.1716 26.359C18.133 26.3446 18.1028 26.3275 18.0812 26.3076L18.0557 26.3158C18.0216 26.3268 17.9937 26.3223 17.9721 26.3025C17.9505 26.2826 17.9312 26.2754 17.9141 26.2809C17.9141 26.2809 17.9164 26.2935 17.921 26.3189C17.921 26.3189 17.9124 26.3216 17.8954 26.3271C17.8783 26.3326 17.859 26.3254 17.8374 26.3055C17.8033 26.3165 17.7414 26.323 17.6516 26.3251C17.5743 26.2963 17.5248 26.272 17.5032 26.2521C17.4566 26.2939 17.4009 26.285 17.3361 26.2254C17.2929 26.1856 17.2736 26.1784 17.2781 26.2038L17.0786 26.1473C17.0741 26.1219 17.0633 26.112 17.0462 26.1175C17.0417 26.0921 17.0394 26.0794 17.0394 26.0794L16.9882 26.0959C16.945 26.0561 16.9149 26.039 16.8979 26.0445C16.8671 25.9739 16.841 25.9287 16.8194 25.9088C16.7978 25.889 16.7654 25.8592 16.7222 25.8194C16.704 25.718 16.6863 25.67 16.6693 25.6755C16.6602 25.6248 16.6209 25.557 16.5516 25.472C16.4947 25.3562 16.4572 25.2476 16.439 25.1462L16.4066 25.1164C16.3202 25.0369 16.2712 24.8649 16.2598 24.6005C16.2541 24.4682 16.2364 24.4202 16.2069 24.4566C16.1728 24.4675 16.1677 24.3887 16.1915 24.2202L16.2511 23.7988C16.2465 23.7734 16.2357 23.7635 16.2187 23.769C16.1971 23.7491 16.1925 23.7237 16.205 23.6929C16.2004 23.6676 16.1982 23.6549 16.1982 23.6549C16.2107 23.624 16.2146 23.596 16.2101 23.5706C16.2226 23.5398 16.222 23.4863 16.2083 23.4103C16.1992 23.3596 16.2009 23.3188 16.2134 23.288C16.2089 23.2626 16.2168 23.2064 16.2372 23.1194C16.2702 23.0015 16.2929 22.9272 16.3054 22.8964L16.411 22.5808C16.4235 22.55 16.4445 22.5164 16.4741 22.4801C16.5036 22.4438 16.5224 22.3975 16.5303 22.3414C16.5553 22.2797 16.5848 22.2434 16.6189 22.2324C16.6655 22.1906 16.6928 22.1416 16.7007 22.0854C16.7291 21.9422 16.7774 21.8597 16.8456 21.8377L16.8968 21.8213C16.965 21.7994 17.0036 21.8137 17.0127 21.8644C17.0355 21.9912 17.0025 22.1091 16.9139 22.218C16.8639 22.3413 16.8389 22.403 16.8389 22.403C16.8344 22.3777 16.8134 22.4112 16.7759 22.5037C16.7804 22.5291 16.7657 22.5472 16.7316 22.5582C16.7145 22.5637 16.7105 22.5918 16.7196 22.6425C16.7026 22.648 16.7049 22.6607 16.7265 22.6805C16.7481 22.7004 16.7549 22.7384 16.747 22.7946C16.7652 22.896 16.7743 22.9467 16.7743 22.9467C16.7618 22.9776 16.7686 23.0156 16.7948 23.0608C16.8164 23.0807 16.8232 23.1187 16.8153 23.1749C16.7982 23.1804 16.7834 23.1985 16.771 23.2294L16.841 23.77C16.841 23.77 16.8632 23.8433 16.9076 23.9899C16.9474 24.1112 16.961 24.1873 16.9485 24.2181L16.9827 24.4082C16.9963 24.4843 17.0867 24.5357 17.2538 24.5624C17.2754 24.5823 17.2948 24.5895 17.3118 24.584C17.3413 24.5477 17.3669 24.5395 17.3885 24.5593C17.6284 24.5895 17.787 24.6189 17.8643 24.6477C17.937 24.6511 18.0927 24.6145 18.3314 24.5377L18.536 24.4719C18.6212 24.4445 18.6957 24.4072 18.7593 24.3599C18.7764 24.3544 18.7787 24.3671 18.7662 24.3979C18.7662 24.3979 18.7747 24.3952 18.7917 24.3897L19.085 24.215C19.0975 24.1841 19.1122 24.166 19.1293 24.1605C19.1418 24.1297 19.1588 24.1242 19.1804 24.1441C19.1975 24.1386 19.2145 24.1331 19.2316 24.1276L19.7532 23.7185C19.8464 23.6349 19.9311 23.5541 20.0072 23.476C20.0958 23.367 20.189 23.2834 20.2868 23.2252C20.4311 23.1251 20.5771 22.9843 20.7248 22.8028C20.868 22.5958 21.0157 22.4142 21.168 22.258C21.1635 22.2327 21.2265 22.1319 21.3572 21.9558C21.5049 21.7743 21.6589 21.5773 21.8191 21.3648L21.8275 20.9599C21.8389 20.8222 21.8786 20.7423 21.9468 20.7204C22.0105 20.6731 22.0525 20.606 22.0729 20.519C22.0127 20.4847 21.9632 20.4604 21.9246 20.446C21.8859 20.4316 21.8746 20.3682 21.8904 20.2559L21.8836 20.2178L21.9022 19.5683C21.9158 19.2421 21.8975 18.9396 21.8474 18.6607C21.7336 18.0269 21.4896 17.6226 21.1156 17.4479C20.7416 17.2732 20.333 17.2571 19.8897 17.3996C19.8215 17.4216 19.7448 17.4462 19.6595 17.4737C19.5913 17.4956 19.5169 17.5329 19.4362 17.5857C19.2873 17.6604 19.1407 17.7477 18.9964 17.8478C18.852 17.9478 18.6992 18.0506 18.5378 18.1561L18.4866 18.1726C18.4184 18.1945 18.3633 18.239 18.3213 18.3062C18.2747 18.348 18.2304 18.4025 18.1883 18.4696C17.9678 18.6478 17.7286 18.8722 17.4707 19.1428C17.3263 19.2429 17.2292 19.3546 17.1792 19.4779C17.1201 19.5505 17.082 19.5896 17.065 19.5951L17.0718 19.6331C16.9786 19.7167 16.8979 19.7695 16.8297 19.7914C16.7956 19.8024 16.753 19.8161 16.7019 19.8325C16.6462 19.8236 16.5927 19.8274 16.5416 19.8438C16.5803 19.8582 16.6081 19.8627 16.6251 19.8572C16.6422 19.8517 16.6615 19.8589 16.6831 19.8788C16.7138 19.9493 16.7059 20.0055 16.6593 20.0473C16.6298 20.0836 16.611 20.1299 16.6031 20.1861L16.5775 20.1943C16.565 20.2251 16.5355 20.2614 16.4889 20.3032C16.4593 20.3395 16.432 20.3885 16.4071 20.4502C16.2582 20.5249 16.1354 20.6448 16.0389 20.8099C15.9593 20.9696 15.8906 21.1392 15.8327 21.3187L15.8071 21.3269L15.3282 22.1245C15.21 22.2698 15.1134 22.4349 15.0385 22.6199C14.8624 22.9447 14.6885 23.2822 14.517 23.6323C14.3454 23.9824 14.1739 24.3326 14.0023 24.6827L13.9512 24.6992C13.8659 24.7266 13.8216 24.781 13.8182 24.8626C13.8273 24.9133 13.8262 25.0075 13.8149 25.1452L13.7893 25.1535C13.7564 25.2713 13.7127 25.3792 13.6581 25.4772C13.5945 25.5245 13.561 25.5889 13.5576 25.6704C13.5542 25.752 13.5337 25.839 13.4963 25.9315L13.3651 26.2553C13.2923 26.2518 13.2088 26.2385 13.1144 26.2152C13.0325 26.1611 12.949 26.1477 12.8637 26.1751C12.8637 26.1751 12.8575 26.1905 12.845 26.2214C12.845 26.2214 12.8496 26.2467 12.8587 26.2974C12.9655 26.2899 13.0621 26.3258 13.1485 26.4053C13.235 26.4848 13.2469 26.6016 13.1844 26.7558L13.147 26.8483C13.097 26.9716 13.0186 27.0371 12.9117 27.0446C12.8219 27.0467 12.7543 27.122 12.7089 27.2707C12.7475 27.2851 12.7924 27.2841 12.8436 27.2676C12.8947 27.2512 12.9317 27.3064 12.9544 27.4331C12.8965 27.6126 12.8386 27.7922 12.7807 27.9717C12.7398 28.1457 12.6904 28.3225 12.6325 28.502C12.5825 28.6254 12.5433 28.7586 12.5149 28.9018C12.482 29.0197 12.4297 29.1304 12.3581 29.2338C12.3456 29.2647 12.3439 29.3054 12.3531 29.3561C12.3747 29.376 12.3792 29.4014 12.3667 29.4322L12.3735 29.4702L12.1539 30.5062C12.0823 30.6097 12.0277 30.7077 11.9903 30.8002C11.9528 30.8927 11.9477 31.015 11.975 31.1671C12.025 31.0438 12.0523 30.9948 12.0568 31.0201L12.0636 31.0582C12.0727 31.1089 12.0648 31.1651 12.0398 31.2267C12.0103 31.263 11.9915 31.3093 11.9836 31.3655L11.9377 31.8629C11.8719 32.5009 11.8459 33.059 11.8597 33.5372C11.8439 34.0518 11.8747 34.5246 11.9521 34.9556C11.9533 35.0625 11.9374 35.1748 11.9045 35.2927C11.884 35.3797 11.9085 35.4657 11.9778 35.5507C12.021 35.5904 12.0535 35.6202 12.0751 35.6401C12.0921 35.6346 12.1097 35.6826 12.1279 35.784C12.1507 35.9107 12.1752 35.9967 12.2013 36.042L12.2218 36.156C12.2355 36.2321 12.2321 36.3136 12.2117 36.4007C12.1912 36.4877 12.1964 36.5665 12.2271 36.637C12.2487 36.6569 12.285 36.6586 12.3362 36.6422C12.3828 36.6004 12.4192 36.6021 12.4453 36.6473L12.6739 37.0163C12.7341 37.0506 12.7819 37.1156 12.8172 37.2116C12.8524 37.3075 12.8831 37.3781 12.9093 37.4233C12.9525 37.463 13.0042 37.5 13.0645 37.5343C13.1202 37.5432 13.1634 37.5829 13.1941 37.6535C13.1986 37.6789 13.1947 37.707 13.1822 37.7378C13.1822 37.7378 13.1867 37.7632 13.1958 37.8139C13.272 37.7357 13.2623 37.6316 13.1668 37.5014C13.2873 37.5699 13.3055 37.6713 13.2214 37.8056C13.2555 37.7947 13.2896 37.7837 13.3237 37.7727C13.3532 37.7364 13.3851 37.7128 13.4192 37.7018C13.4874 37.6799 13.5624 37.696 13.6442 37.7501C13.9535 37.8652 14.2854 37.906 14.64 37.8724C15.0163 37.8587 15.409 37.7861 15.8182 37.6545C16.2785 37.5065 16.7615 37.2841 17.2673 36.9874C17.7776 36.7161 18.2811 36.4067 18.7777 36.0593L18.7709 36.0213C18.805 36.0103 18.8328 36.0148 18.8544 36.0346C18.8715 36.0292 18.8885 36.0237 18.9056 36.0182C18.9908 35.9908 19.0584 35.9154 19.1084 35.7921L19.3692 35.5875C19.4829 35.4169 19.5925 35.2744 19.6982 35.16C19.8039 35.0455 19.9295 34.9917 20.075 34.9986C20.1136 35.013 20.1182 35.0383 20.0886 35.0746C20.0716 35.0801 20.0676 35.1082 20.0767 35.1589C20.1063 35.1226 20.125 35.0764 20.1329 35.0202C20.1409 34.964 20.1596 34.9177 20.1892 34.8814L20.329 34.756C20.4437 34.6923 20.5392 34.6214 20.6154 34.5433C20.6869 34.4398 20.7693 34.3463 20.8625 34.2627L21.1165 34.0201C21.1552 34.0345 21.1915 34.0362 21.2256 34.0252C21.2938 34.0033 21.3404 33.9615 21.3654 33.8999C21.3858 33.8128 21.4233 33.7203 21.4779 33.6223C21.4949 33.6169 21.533 33.5778 21.5921 33.5052C21.6682 33.4271 21.7552 33.3589 21.8529 33.3006C21.9461 33.217 22.0177 33.1136 22.0676 32.9902L22.0932 32.982C22.3171 32.7223 22.5324 32.4654 22.7392 32.2112C22.946 31.9569 23.1443 31.7055 23.3341 31.4567L23.9221 30.6643C23.9892 30.5355 24.0414 30.4248 24.0789 30.3323C24.1164 30.2398 24.1778 30.1799 24.263 30.1525L24.2818 30.1062C24.3692 29.8904 24.4721 29.7098 24.5902 29.5646C24.7039 29.3939 24.7919 29.2315 24.8544 29.0774C24.9589 28.8561 25.0453 28.7344 25.1135 28.7125C25.1646 28.6961 25.1993 28.7385 25.2175 28.8399C25.2403 28.9667 25.2142 29.1226 25.1392 29.3076C25.0222 29.5597 24.8927 29.8427 24.7507 30.1566C24.6087 30.4704 24.4434 30.8051 24.2548 31.1607C24.1877 31.2895 24.1053 31.3831 24.0076 31.4413C23.9269 31.4941 23.8832 31.602 23.8764 31.7651C23.7923 31.8994 23.6997 32.0364 23.5986 32.1762C23.5145 32.3105 23.4134 32.4503 23.2952 32.5955C23.1645 32.7716 23.0253 32.9505 22.8776 33.1321C22.7469 33.3082 22.5992 33.4897 22.4344 33.6768C22.3833 33.6932 22.3236 33.7124 22.2554 33.7344C22.1997 33.7255 22.1463 33.7292 22.0951 33.7457C21.9758 33.784 21.8974 33.8495 21.8599 33.942C21.8599 33.942 21.8622 33.9547 21.8667 33.98C21.8667 33.98 21.8798 34.0026 21.9059 34.0478C21.94 34.0369 21.9741 34.0259 22.0082 34.015C22.0378 33.9786 22.0719 33.9677 22.1105 33.9821C22.1105 33.9821 22.1128 33.9947 22.1174 34.0201C22.1219 34.0454 22.1071 34.0636 22.073 34.0746C22.014 34.1472 21.9674 34.189 21.9333 34.2L21.9401 34.238L21.7816 34.4096L21.756 34.4179C21.706 34.5412 21.6503 34.5323 21.5889 34.3911C21.5423 34.4329 21.5003 34.5001 21.4628 34.5926C21.4423 34.6796 21.4111 34.7567 21.3691 34.8238L21.2105 34.9955C21.1469 35.0428 21.0832 35.09 21.0196 35.1373C20.9514 35.1593 20.9071 35.2137 20.8866 35.3008L20.8611 35.309C20.802 35.3816 20.7258 35.4597 20.6327 35.5433C20.552 35.5961 20.4736 35.6615 20.3974 35.7396L20.4042 35.7777L20.2764 35.8188C20.1911 35.8462 20.0951 35.8637 19.9882 35.8712C19.8768 35.8534 19.77 35.8609 19.6677 35.8938C19.7155 35.9589 19.782 35.9777 19.8672 35.9503C19.957 35.9483 19.994 36.0034 19.9781 36.1158C19.9826 36.1412 19.9764 36.1566 19.9593 36.1621L19.3422 36.6421L19.3491 36.6801C19.2854 36.7274 19.211 36.7647 19.1257 36.7921C19.0621 36.8394 19.0007 36.8993 18.9416 36.972C18.3222 37.4393 17.6977 37.8278 17.0681 38.1375C16.4384 38.4473 15.8423 38.6926 15.2797 38.8735L15.2541 38.8817ZM18.7171 25.7813C18.7296 25.7505 18.7614 25.7269 18.8125 25.7104C18.8762 25.6631 18.9228 25.6213 18.9523 25.585L19.5013 25.3281C19.5183 25.3226 19.5331 25.3044 19.5456 25.2736C19.5581 25.2428 19.5729 25.2246 19.5899 25.2191C19.6024 25.1883 19.6257 25.1674 19.6598 25.1564C19.7268 25.0276 19.7672 25.0012 19.7808 25.0773C19.7899 25.128 19.8218 25.1043 19.8763 25.0064C19.8888 24.9755 19.9121 24.9546 19.9462 24.9437C19.9712 24.882 19.9922 24.8484 20.0093 24.8429C20.0388 24.8066 20.0598 24.7731 20.0723 24.7422C20.1019 24.7059 20.1166 24.6877 20.1166 24.6877C20.1121 24.6624 20.1269 24.6442 20.1609 24.6333L20.1865 24.625C20.2206 24.6141 20.2735 24.5569 20.345 24.4534C20.4166 24.3499 20.4524 24.2982 20.4524 24.2982C20.4695 24.2927 20.482 24.2619 20.4899 24.2057C20.5149 24.144 20.5359 24.1105 20.553 24.105C20.5655 24.0741 20.5888 24.0532 20.6229 24.0423C20.6524 24.006 20.6649 23.9751 20.6604 23.9498C20.6899 23.9135 20.7194 23.8771 20.749 23.8408C20.7785 23.8045 20.8018 23.7836 20.8189 23.7781C20.8314 23.7473 20.8586 23.6983 20.9007 23.6312C20.9598 23.5585 20.987 23.5095 20.9825 23.4842C21.0075 23.4225 21.0347 23.3735 21.0643 23.3372C21.1109 23.2954 21.1404 23.2591 21.1529 23.2283C21.1995 23.1865 21.2961 23.0213 21.4427 22.7329C21.5847 22.419 21.6943 22.0754 21.7715 21.702C21.7965 21.6403 21.7311 21.7283 21.5754 21.9661C21.4323 22.173 21.3544 22.2919 21.3419 22.3228C21.3249 22.3282 21.2976 22.3772 21.2601 22.4697C21.2181 22.5369 21.1886 22.5732 21.1715 22.5787L21.134 22.6712L21.0573 22.6959L21.0386 22.7421C21.0386 22.7421 21.009 22.7784 20.9499 22.8511C20.9329 22.8565 20.9033 22.8929 20.8613 22.96C20.8192 23.0272 20.7897 23.0635 20.7727 23.069C20.7556 23.0744 20.7408 23.0926 20.7283 23.1234C20.7113 23.1289 20.6942 23.1344 20.6772 23.1399C20.6227 23.2379 20.534 23.3468 20.4113 23.4667C20.3056 23.5811 20.2272 23.6466 20.176 23.663L20.1505 23.6713C20.1164 23.6822 20.0868 23.7185 20.0618 23.7802L20.0431 23.8265L19.9221 23.9056C19.8925 23.9419 19.8544 23.981 19.8078 24.0228C19.7613 24.0646 19.7209 24.0909 19.6868 24.1019C19.6743 24.1327 19.6681 24.1482 19.6681 24.1482C19.6635 24.1228 19.6612 24.1101 19.6612 24.1101C19.6362 24.1718 19.5982 24.2109 19.547 24.2273C19.53 24.2328 19.5215 24.2355 19.5215 24.2355C19.5169 24.2102 19.5061 24.2002 19.489 24.2057C19.472 24.2112 19.4447 24.2602 19.4072 24.3527L19.2794 24.3938C19.2839 24.4192 19.2692 24.4373 19.2351 24.4483L19.2095 24.4565C19.1924 24.462 19.1691 24.4829 19.1396 24.5192C19.1101 24.5555 19.0868 24.5764 19.0697 24.5819C19.0527 24.5874 19.0464 24.6028 19.051 24.6282C19.051 24.6282 19.0424 24.6309 19.0254 24.6364C19.0208 24.611 19.01 24.6011 18.993 24.6066L18.9674 24.6148L18.8276 24.7402L18.7509 24.7649C18.6998 24.7813 18.6378 24.7878 18.5651 24.7844C18.5094 24.7755 18.4497 24.7947 18.386 24.8419C18.369 24.8474 18.3628 24.8628 18.3673 24.8882C18.3673 24.8882 18.3588 24.8909 18.3417 24.8964L18.2906 24.9129C18.2906 24.9129 18.2821 24.9156 18.265 24.9211C18.265 24.9211 18.2588 24.9365 18.2463 24.9673C18.2417 24.942 18.2309 24.9321 18.2139 24.9375L18.0604 24.9869C18.0559 24.9615 18.0451 24.9516 18.028 24.9571C18.011 24.9625 17.9962 24.9807 17.9837 25.0115C17.9667 25.017 17.9496 25.0225 17.9326 25.028C17.8303 25.0609 17.7444 25.0348 17.6751 24.9499C17.6057 24.8649 17.5074 24.8697 17.3801 24.9643C17.3755 24.9389 17.3647 24.929 17.3477 24.9345C17.3261 24.9146 17.313 24.892 17.3085 24.8666L17.2829 24.8749C17.2579 24.9365 17.2477 24.98 17.2522 25.0054C17.2397 25.0362 17.2466 25.0742 17.2727 25.1195C17.3114 25.1339 17.3267 25.1691 17.3188 25.2253C17.3404 25.2452 17.3557 25.2805 17.3649 25.3312C17.3865 25.3511 17.4058 25.3583 17.4228 25.3528C17.4365 25.4288 17.4757 25.4967 17.5405 25.5563C17.5451 25.5816 17.5582 25.6042 17.5798 25.6241C17.6184 25.6385 17.6292 25.6484 17.6122 25.6539C17.6338 25.6738 17.6531 25.681 17.6701 25.6755C17.6872 25.67 17.7003 25.6926 17.7094 25.7433L17.8066 25.8328L17.8322 25.8245C18.0038 25.8766 18.1709 25.9033 18.3335 25.9047C18.5085 25.8752 18.6364 25.8341 18.7171 25.7813Z" fill="#CF0094"/>
</g>
<g filter="url(#filter2_d_184_10)">
<path d="M15.921 38.8817C15.8096 38.8639 15.6919 38.8615 15.568 38.8745C15.4612 38.882 15.3435 38.8796 15.2151 38.8673L15.3634 38.9403C15.2952 38.9622 15.2225 38.9588 15.1452 38.93C15.0895 38.9211 15.0383 38.9376 14.9917 38.9794L14.4717 38.9454L14.4393 38.9156C14.3529 38.8362 14.2687 38.7694 14.1869 38.7152C14.105 38.6611 14.009 38.6786 13.8988 38.7676C13.9374 38.782 13.9738 38.7837 14.0079 38.7728C14.042 38.7618 14.0721 38.779 14.0983 38.8242L14.0471 38.8406C13.9789 38.8625 13.9232 38.8536 13.88 38.8139C13.8368 38.7742 13.7851 38.7372 13.7248 38.7029C13.4281 38.557 13.1501 38.3648 12.8909 38.1263L12.8841 38.0883C12.7931 37.9835 12.7192 37.8731 12.6623 37.7573C12.6009 37.6162 12.5208 37.5213 12.4218 37.4727L12.3963 37.4809C12.3178 37.3452 12.2371 37.1969 12.154 37.0358C12.0835 36.844 12.0153 36.6648 11.9493 36.4983C11.9356 36.4223 11.9157 36.3616 11.8896 36.3164C11.8759 36.2403 11.8623 36.1643 11.8486 36.0882C11.8304 35.9868 11.8144 35.8981 11.8008 35.822C11.7996 35.7151 11.7985 35.6082 11.7973 35.5014C11.7212 35.5795 11.6717 35.5551 11.6489 35.4284C11.5818 35.155 11.5232 34.8789 11.4731 34.6C11.4401 34.3156 11.411 34.0032 11.3859 33.6626L11.3602 33.0675C11.3715 32.9298 11.4067 32.8246 11.4658 32.752C11.5249 32.6794 11.5345 32.5824 11.4947 32.4611C11.4777 32.4666 11.4629 32.4848 11.4504 32.5156C11.4379 32.5464 11.4146 32.5673 11.3805 32.5783C11.3805 32.5783 11.372 32.581 11.3549 32.5865C11.3504 32.5612 11.3458 32.5358 11.3413 32.5105L11.3668 32.5023L11.36 32.4642C11.3384 32.4444 11.3361 32.4317 11.3532 32.4262C11.3702 32.4207 11.368 32.408 11.3464 32.3882L11.3395 32.3501C11.3168 32.2234 11.3196 32.0884 11.3479 31.9452C11.3718 31.7766 11.3871 31.6108 11.3939 31.4477C11.4052 31.31 11.4358 31.1795 11.4858 31.0561C11.5529 30.9273 11.5557 30.7923 11.4942 30.6512L11.4175 30.6759C11.4596 30.6087 11.476 30.5498 11.4669 30.4991L11.4857 30.4528L11.598 29.572L11.6235 29.5638C11.7599 29.5199 11.8105 29.45 11.7752 29.3541C11.757 29.2527 11.7365 29.1386 11.7138 29.0119L11.7069 28.9738L11.8227 28.4137C11.9114 28.3047 11.9591 28.1687 11.9659 28.0056C11.9681 27.8172 11.9942 27.6613 12.0442 27.538C12.0555 27.4003 12.0884 27.2824 12.143 27.1844C12.193 27.0611 12.2321 26.9278 12.2605 26.7846C12.3264 26.5489 12.3945 26.3259 12.4649 26.1155C12.5308 25.8798 12.6075 25.654 12.695 25.4382C12.7711 25.3601 12.8194 25.2775 12.8398 25.1905C12.8603 25.1035 12.8869 25.001 12.9199 24.8832C12.9153 24.8578 12.913 24.8451 12.913 24.8451C12.9301 24.8397 12.9363 24.8242 12.9318 24.7989C12.9647 24.681 13.0215 24.5957 13.1022 24.543C13.1829 24.4902 13.2289 24.395 13.2403 24.2572C13.2516 24.1195 13.2823 23.989 13.3322 23.8656C13.4322 23.619 13.543 23.3822 13.6645 23.1554C13.7815 22.9033 13.9008 22.6638 14.0224 22.437C14.1201 22.3788 14.1923 22.3287 14.2389 22.2869C14.281 22.2198 14.2883 22.1102 14.261 21.958L14.2866 21.9498C14.4377 21.6867 14.5911 21.4363 14.7467 21.1985C14.9024 20.9607 15.0518 20.7384 15.195 20.5314C15.3086 20.3608 15.416 20.2056 15.5171 20.0658C15.6353 19.9206 15.745 19.7781 15.8461 19.6383L15.9228 19.6136C15.991 19.5917 16.0376 19.5499 16.0626 19.4882C16.0876 19.4265 16.1188 19.3495 16.1563 19.257L16.1819 19.2487C17.2932 18.0065 18.386 17.2126 19.4601 16.8673C19.5965 16.8234 19.7437 16.7895 19.9016 16.7655C20.0551 16.7162 20.2023 16.6823 20.3432 16.6638C21.1719 16.5582 21.8477 16.7566 22.3707 17.2588C22.8891 17.7357 23.2144 18.3417 23.3464 19.077C23.392 19.3305 23.4142 19.6049 23.4132 19.9002C23.5518 19.6679 23.6733 19.4411 23.7779 19.2198C23.8824 18.9985 23.9568 18.76 24.001 18.5045C24.0215 18.4174 24.0595 18.3784 24.1152 18.3873C24.1664 18.3708 24.1817 18.4061 24.1613 18.4932C24.1511 18.7378 24.0859 19.0269 23.9654 19.3606C23.8405 19.669 23.6939 19.9574 23.5258 20.226C23.5303 20.2514 23.5036 20.3538 23.4457 20.5333C23.3832 20.6875 23.3651 20.7872 23.3912 20.8324C23.3958 20.8578 23.3793 20.9167 23.3418 21.0092C23.3168 21.0709 23.3004 21.1298 23.2924 21.186L23.1749 21.5858C23.1749 21.5858 23.1772 21.5985 23.1817 21.6238C23.1817 21.6238 23.1755 21.6393 23.163 21.6701C23.163 21.6701 23.1334 21.7064 23.0743 21.779C23.0493 21.8407 23.0141 21.9459 22.9687 22.0946C22.9403 22.2378 22.8881 22.3484 22.8119 22.4266L22.7233 22.5355C22.7108 22.5663 22.7006 22.6098 22.6926 22.666C22.6801 22.6969 22.6614 22.7431 22.6364 22.8048C22.5864 22.9281 22.4813 23.096 22.3211 23.3084C22.1734 23.49 22.066 23.6452 21.999 23.774C21.999 23.774 21.9842 23.7922 21.9546 23.8285C21.9251 23.8648 21.8893 23.9165 21.8473 23.9837L21.7774 24.0464C21.7603 24.0519 21.7308 24.0882 21.6887 24.1553C21.6638 24.217 21.645 24.2632 21.6325 24.2941C21.62 24.3249 21.5967 24.3458 21.5626 24.3568C21.5456 24.3623 21.5246 24.3958 21.4996 24.4575C21.4871 24.4883 21.4638 24.5092 21.4297 24.5202C21.3956 24.5312 21.366 24.5675 21.341 24.6291L20.9848 24.9046C20.9723 24.9354 20.9302 25.0026 20.8586 25.1061C20.7995 25.1787 20.7615 25.2177 20.7444 25.2232L20.6933 25.2397C20.6762 25.2452 20.6615 25.2633 20.649 25.2941C20.6535 25.3195 20.6387 25.3377 20.6046 25.3486C20.5921 25.3795 20.5689 25.4004 20.5348 25.4113C20.5132 25.3914 20.4876 25.3997 20.458 25.436C20.441 25.4415 20.42 25.475 20.395 25.5367C20.3825 25.5675 20.3677 25.5857 20.3507 25.5912L20.2739 25.6159L20.141 25.7793C20.0773 25.8266 20.0029 25.8639 19.9176 25.8913C19.8495 25.9132 19.7773 25.9633 19.7011 26.0414C19.6841 26.0469 19.6477 26.0451 19.592 26.0362C19.5534 26.0218 19.517 26.0201 19.4829 26.0311C19.3431 26.1565 19.1965 26.2439 19.0431 26.2932C19.0306 26.324 19.0135 26.3295 18.9919 26.3096C18.9874 26.2843 18.9766 26.2744 18.9595 26.2798C18.9425 26.2853 18.9362 26.3007 18.9408 26.3261C18.9408 26.3261 18.9322 26.3288 18.9152 26.3343C18.9152 26.3343 18.8896 26.3425 18.8385 26.359C18.7998 26.3446 18.7697 26.3275 18.7481 26.3076L18.7225 26.3158C18.6884 26.3268 18.6606 26.3223 18.639 26.3025C18.6174 26.2826 18.598 26.2754 18.581 26.2809C18.581 26.2809 18.5833 26.2935 18.5878 26.3189C18.5878 26.3189 18.5793 26.3216 18.5622 26.3271C18.5452 26.3326 18.5259 26.3254 18.5043 26.3055C18.4702 26.3165 18.4082 26.323 18.3184 26.3251C18.2411 26.2963 18.1917 26.272 18.1701 26.2521C18.1235 26.2939 18.0678 26.285 18.003 26.2254C17.9598 26.1856 17.9404 26.1784 17.945 26.2038L17.7455 26.1473C17.7409 26.1219 17.7301 26.112 17.7131 26.1175C17.7085 26.0921 17.7063 26.0794 17.7063 26.0794L17.6551 26.0959C17.6119 26.0561 17.5818 26.039 17.5647 26.0445C17.534 25.9739 17.5079 25.9287 17.4863 25.9088C17.4647 25.889 17.4322 25.8592 17.389 25.8194C17.3708 25.718 17.3532 25.67 17.3362 25.6755C17.327 25.6248 17.2878 25.557 17.2185 25.472C17.1616 25.3562 17.124 25.2476 17.1058 25.1462L17.0734 25.1164C16.987 25.0369 16.9381 24.8649 16.9267 24.6005C16.9209 24.4682 16.9033 24.4202 16.8738 24.4566C16.8397 24.4675 16.8345 24.3887 16.8584 24.2202L16.9179 23.7988C16.9134 23.7734 16.9026 23.7635 16.8855 23.769C16.8639 23.7491 16.8594 23.7237 16.8719 23.6929C16.8673 23.6676 16.865 23.6549 16.865 23.6549C16.8775 23.624 16.8815 23.596 16.8769 23.5706C16.8894 23.5398 16.8889 23.4863 16.8752 23.4103C16.8661 23.3596 16.8678 23.3188 16.8803 23.288C16.8757 23.2626 16.8837 23.2064 16.9041 23.1194C16.937 23.0015 16.9598 22.9272 16.9723 22.8964L17.0779 22.5808C17.0904 22.55 17.1114 22.5164 17.1409 22.4801C17.1705 22.4438 17.1892 22.3975 17.1972 22.3414C17.2222 22.2797 17.2517 22.2434 17.2858 22.2324C17.3324 22.1906 17.3597 22.1416 17.3676 22.0854C17.396 21.9422 17.4443 21.8597 17.5125 21.8377L17.5636 21.8213C17.6318 21.7994 17.6705 21.8137 17.6796 21.8644C17.7024 21.9912 17.6694 22.1091 17.5808 22.218C17.5308 22.3413 17.5058 22.403 17.5058 22.403C17.5013 22.3777 17.4802 22.4112 17.4427 22.5037C17.4473 22.5291 17.4325 22.5472 17.3984 22.5582C17.3814 22.5637 17.3774 22.5918 17.3865 22.6425C17.3695 22.648 17.3717 22.6607 17.3933 22.6805C17.415 22.7004 17.4218 22.7384 17.4138 22.7946C17.4321 22.896 17.4412 22.9467 17.4412 22.9467C17.4287 22.9776 17.4355 23.0156 17.4616 23.0608C17.4833 23.0807 17.4901 23.1187 17.4821 23.1749C17.4651 23.1804 17.4503 23.1985 17.4378 23.2294L17.5079 23.77C17.5079 23.77 17.5301 23.8433 17.5744 23.9899C17.6142 24.1112 17.6279 24.1873 17.6154 24.2181L17.6496 24.4082C17.6632 24.4843 17.7536 24.5357 17.9207 24.5624C17.9423 24.5823 17.9616 24.5895 17.9787 24.584C18.0082 24.5477 18.0338 24.5395 18.0554 24.5593C18.2952 24.5895 18.4538 24.6189 18.5311 24.6477C18.6039 24.6511 18.7596 24.6145 18.9983 24.5377L19.2029 24.4719C19.2881 24.4445 19.3626 24.4072 19.4262 24.3599C19.4432 24.3544 19.4455 24.3671 19.433 24.3979C19.433 24.3979 19.4416 24.3952 19.4586 24.3897L19.7518 24.215C19.7643 24.1841 19.7791 24.166 19.7961 24.1605C19.8086 24.1297 19.8257 24.1242 19.8473 24.1441C19.8643 24.1386 19.8814 24.1331 19.8984 24.1276L20.4201 23.7185C20.5133 23.6349 20.5979 23.5541 20.6741 23.476C20.7627 23.367 20.8559 23.2834 20.9536 23.2252C21.098 23.1251 21.244 22.9843 21.3917 22.8028C21.5349 22.5958 21.6826 22.4142 21.8349 22.258C21.8303 22.2327 21.8934 22.1319 22.0241 21.9558C22.1718 21.7743 22.3258 21.5773 22.486 21.3648L22.4944 20.9599C22.5057 20.8222 22.5455 20.7423 22.6137 20.7204C22.6773 20.6731 22.7194 20.606 22.7398 20.519C22.6796 20.4847 22.6301 20.4604 22.5915 20.446C22.5528 20.4316 22.5414 20.3682 22.5573 20.2559L22.5505 20.2178L22.5691 19.5683C22.5826 19.2421 22.5644 18.9396 22.5143 18.6607C22.4004 18.0269 22.1565 17.6226 21.7825 17.4479C21.4085 17.2732 20.9998 17.2571 20.5565 17.3996C20.4884 17.4216 20.4116 17.4462 20.3264 17.4737C20.2582 17.4956 20.1837 17.5329 20.1031 17.5857C19.9542 17.6604 19.8076 17.7477 19.6632 17.8478C19.5189 17.9478 19.366 18.0506 19.2046 18.1561L19.1535 18.1726C19.0853 18.1945 19.0302 18.239 18.9881 18.3062C18.9415 18.348 18.8972 18.4025 18.8552 18.4696C18.6347 18.6478 18.3955 18.8722 18.1375 19.1428C17.9932 19.2429 17.896 19.3546 17.8461 19.4779C17.787 19.5505 17.7489 19.5896 17.7319 19.5951L17.7387 19.6331C17.6455 19.7167 17.5648 19.7695 17.4966 19.7914C17.4625 19.8024 17.4199 19.8161 17.3687 19.8325C17.313 19.8236 17.2596 19.8274 17.2085 19.8438C17.2471 19.8582 17.275 19.8627 17.292 19.8572C17.3091 19.8517 17.3284 19.8589 17.35 19.8788C17.3807 19.9493 17.3728 20.0055 17.3262 20.0473C17.2966 20.0836 17.2779 20.1299 17.2699 20.1861L17.2444 20.1943C17.2319 20.2251 17.2023 20.2614 17.1557 20.3032C17.1262 20.3395 17.0989 20.3885 17.0739 20.4502C16.925 20.5249 16.8023 20.6448 16.7057 20.8099C16.6262 20.9696 16.5575 21.1392 16.4996 21.3187L16.474 21.3269L15.9951 22.1245C15.8769 22.2698 15.7803 22.4349 15.7053 22.6199C15.5292 22.9447 15.3554 23.2822 15.1839 23.6323C15.0123 23.9824 14.8408 24.3326 14.6692 24.6827L14.6181 24.6992C14.5328 24.7266 14.4885 24.781 14.4851 24.8626C14.4942 24.9133 14.4931 25.0075 14.4818 25.1452L14.4562 25.1535C14.4233 25.2713 14.3795 25.3792 14.325 25.4772C14.2613 25.5245 14.2278 25.5889 14.2244 25.6704C14.2211 25.752 14.2006 25.839 14.1631 25.9315L14.0319 26.2553C13.9592 26.2518 13.8756 26.2385 13.7813 26.2152C13.6994 26.1611 13.6159 26.1477 13.5306 26.1751C13.5306 26.1751 13.5244 26.1905 13.5119 26.2214C13.5119 26.2214 13.5164 26.2467 13.5255 26.2974C13.6324 26.2899 13.729 26.3258 13.8154 26.4053C13.9018 26.4848 13.9138 26.6016 13.8513 26.7558L13.8138 26.8483C13.7638 26.9716 13.6854 27.0371 13.5786 27.0446C13.4888 27.0467 13.4212 27.122 13.3757 27.2707C13.4144 27.2851 13.4593 27.2841 13.5104 27.2676C13.5616 27.2512 13.5985 27.3064 13.6213 27.4331C13.5634 27.6126 13.5055 27.7922 13.4475 27.9717C13.4067 28.1457 13.3573 28.3225 13.2993 28.502C13.2493 28.6254 13.2102 28.7586 13.1818 28.9018C13.1489 29.0197 13.0966 29.1304 13.025 29.2338C13.0125 29.2647 13.0108 29.3054 13.0199 29.3561C13.0415 29.376 13.0461 29.4014 13.0336 29.4322L13.0404 29.4702L12.8207 30.5062C12.7491 30.6097 12.6946 30.7077 12.6571 30.8002C12.6196 30.8927 12.6146 31.015 12.6419 31.1671C12.6919 31.0438 12.7191 30.9948 12.7237 31.0201L12.7305 31.0582C12.7396 31.1089 12.7317 31.1651 12.7067 31.2267C12.6771 31.263 12.6584 31.3093 12.6504 31.3655L12.6045 31.8629C12.5388 32.5009 12.5128 33.059 12.5265 33.5372C12.5108 34.0518 12.5416 34.5246 12.619 34.9556C12.6201 35.0625 12.6043 35.1748 12.5713 35.2927C12.5509 35.3797 12.5754 35.4657 12.6447 35.5507C12.6879 35.5904 12.7203 35.6202 12.7419 35.6401C12.759 35.6346 12.7766 35.6826 12.7948 35.784C12.8176 35.9107 12.842 35.9967 12.8682 36.042L12.8887 36.156C12.9024 36.2321 12.899 36.3136 12.8785 36.4007C12.8581 36.4877 12.8632 36.5665 12.8939 36.637C12.9155 36.6569 12.9519 36.6586 13.0031 36.6422C13.0496 36.6004 13.086 36.6021 13.1122 36.6473L13.3408 37.0163C13.401 37.0506 13.4488 37.1156 13.484 37.2116C13.5193 37.3075 13.55 37.3781 13.5762 37.4233C13.6194 37.463 13.6711 37.5 13.7313 37.5343C13.787 37.5432 13.8302 37.5829 13.861 37.6535C13.8655 37.6789 13.8615 37.707 13.849 37.7378C13.849 37.7378 13.8536 37.7632 13.8627 37.8139C13.9388 37.7357 13.9292 37.6316 13.8336 37.5014C13.9541 37.5699 13.9724 37.6713 13.8883 37.8056C13.9224 37.7947 13.9565 37.7837 13.9906 37.7727C14.0201 37.7364 14.0519 37.7128 14.086 37.7018C14.1542 37.6799 14.2293 37.696 14.3111 37.7501C14.6203 37.8652 14.9522 37.906 15.3069 37.8724C15.6831 37.8587 16.0758 37.7861 16.485 37.6545C16.9453 37.5065 17.4284 37.2841 17.9341 36.9874C18.4444 36.7161 18.9479 36.4067 19.4446 36.0593L19.4377 36.0213C19.4718 36.0103 19.4997 36.0148 19.5213 36.0346C19.5383 36.0292 19.5554 36.0237 19.5724 36.0182C19.6577 35.9908 19.7253 35.9154 19.7753 35.7921L20.0361 35.5875C20.1497 35.4169 20.2594 35.2744 20.3651 35.16C20.4707 35.0455 20.5963 34.9917 20.7418 34.9986C20.7805 35.013 20.785 35.0383 20.7555 35.0746C20.7384 35.0801 20.7345 35.1082 20.7436 35.1589C20.7731 35.1226 20.7919 35.0764 20.7998 35.0202C20.8078 34.964 20.8265 34.9177 20.856 34.8814L20.9958 34.756C21.1106 34.6923 21.2061 34.6214 21.2822 34.5433C21.3538 34.4398 21.4362 34.3463 21.5294 34.2627L21.7834 34.0201C21.822 34.0345 21.8584 34.0362 21.8925 34.0252C21.9607 34.0033 22.0073 33.9615 22.0323 33.8999C22.0527 33.8128 22.0902 33.7203 22.1447 33.6223C22.1618 33.6169 22.1999 33.5778 22.2589 33.5052C22.3351 33.4271 22.422 33.3589 22.5198 33.3006C22.613 33.217 22.6845 33.1136 22.7345 32.9902L22.7601 32.982C22.984 32.7223 23.1993 32.4654 23.4061 32.2112C23.6129 31.9569 23.8112 31.7055 24.001 31.4567L24.589 30.6643C24.656 30.5355 24.7083 30.4248 24.7458 30.3323C24.7833 30.2398 24.8446 30.1799 24.9299 30.1525L24.9486 30.1062C25.0361 29.8904 25.1389 29.7098 25.2571 29.5646C25.3707 29.3939 25.4588 29.2315 25.5213 29.0774C25.6258 28.8561 25.7121 28.7344 25.7803 28.7125C25.8315 28.6961 25.8662 28.7385 25.8844 28.8399C25.9071 28.9667 25.881 29.1226 25.8061 29.3076C25.689 29.5597 25.5595 29.8427 25.4175 30.1566C25.2755 30.4704 25.1102 30.8051 24.9216 31.1607C24.8546 31.2895 24.7722 31.3831 24.6745 31.4413C24.5938 31.4941 24.55 31.602 24.5433 31.7651C24.4592 31.8994 24.3666 32.0364 24.2654 32.1762C24.1814 32.3105 24.0802 32.4503 23.9621 32.5955C23.8314 32.7716 23.6922 32.9505 23.5445 33.1321C23.4138 33.3082 23.2661 33.4897 23.1013 33.6768C23.0501 33.6932 22.9905 33.7124 22.9223 33.7344C22.8666 33.7255 22.8131 33.7292 22.762 33.7457C22.6427 33.784 22.5642 33.8495 22.5267 33.942C22.5267 33.942 22.529 33.9547 22.5336 33.98C22.5336 33.98 22.5467 34.0026 22.5728 34.0478C22.6069 34.0369 22.641 34.0259 22.6751 34.015C22.7047 33.9786 22.7387 33.9677 22.7774 33.9821C22.7774 33.9821 22.7797 33.9947 22.7842 34.0201C22.7888 34.0454 22.774 34.0636 22.7399 34.0746C22.6808 34.1472 22.6342 34.189 22.6001 34.2L22.607 34.238L22.4484 34.4096L22.4229 34.4179C22.3729 34.5412 22.3172 34.5323 22.2558 34.3911C22.2092 34.4329 22.1671 34.5001 22.1296 34.5926C22.1092 34.6796 22.078 34.7567 22.0359 34.8238L21.8774 34.9955C21.8138 35.0428 21.7501 35.09 21.6865 35.1373C21.6183 35.1593 21.574 35.2137 21.5535 35.3008L21.5279 35.309C21.4689 35.3816 21.3927 35.4597 21.2995 35.5433C21.2188 35.5961 21.1404 35.6615 21.0643 35.7396L21.0711 35.7777L20.9432 35.8188C20.858 35.8462 20.762 35.8637 20.6551 35.8712C20.5437 35.8534 20.4369 35.8609 20.3346 35.8938C20.3823 35.9589 20.4488 35.9777 20.5341 35.9503C20.6239 35.9483 20.6608 36.0034 20.6449 36.1158C20.6495 36.1412 20.6432 36.1566 20.6262 36.1621L20.0091 36.6421L20.0159 36.6801C19.9523 36.7274 19.8778 36.7647 19.7926 36.7921C19.7289 36.8394 19.6676 36.8993 19.6085 36.972C18.9891 37.4393 18.3646 37.8278 17.7349 38.1375C17.1053 38.4473 16.5092 38.6926 15.9465 38.8735L15.921 38.8817ZM19.3839 25.7813C19.3964 25.7505 19.4283 25.7269 19.4794 25.7104C19.543 25.6631 19.5896 25.6213 19.6192 25.585L20.1681 25.3281C20.1852 25.3226 20.2 25.3044 20.2125 25.2736C20.225 25.2428 20.2397 25.2246 20.2568 25.2191C20.2693 25.1883 20.2926 25.1674 20.3267 25.1564C20.3937 25.0276 20.434 25.0012 20.4477 25.0773C20.4568 25.128 20.4886 25.1043 20.5432 25.0064C20.5557 24.9755 20.579 24.9546 20.6131 24.9437C20.6381 24.882 20.6591 24.8484 20.6761 24.8429C20.7057 24.8066 20.7267 24.7731 20.7392 24.7422C20.7687 24.7059 20.7835 24.6877 20.7835 24.6877C20.7789 24.6624 20.7937 24.6442 20.8278 24.6333L20.8534 24.625C20.8875 24.6141 20.9403 24.5569 21.0119 24.4534C21.0835 24.3499 21.1193 24.2982 21.1193 24.2982C21.1363 24.2927 21.1488 24.2619 21.1568 24.2057C21.1818 24.144 21.2028 24.1105 21.2198 24.105C21.2323 24.0741 21.2556 24.0532 21.2897 24.0423C21.3193 24.006 21.3318 23.9751 21.3272 23.9498C21.3568 23.9135 21.3863 23.8771 21.4159 23.8408C21.4454 23.8045 21.4687 23.7836 21.4857 23.7781C21.4982 23.7473 21.5255 23.6983 21.5676 23.6312C21.6266 23.5585 21.6539 23.5095 21.6494 23.4842C21.6743 23.4225 21.7016 23.3735 21.7312 23.3372C21.7778 23.2954 21.8073 23.2591 21.8198 23.2283C21.8664 23.1865 21.963 23.0213 22.1095 22.7329C22.2515 22.419 22.3611 22.0754 22.4383 21.702C22.4633 21.6403 22.398 21.7283 22.2423 21.9661C22.0991 22.173 22.0213 22.2919 22.0088 22.3228C21.9918 22.3282 21.9645 22.3772 21.927 22.4697C21.885 22.5369 21.8554 22.5732 21.8384 22.5787L21.8009 22.6712L21.7242 22.6959L21.7054 22.7421C21.7054 22.7421 21.6759 22.7784 21.6168 22.8511C21.5997 22.8565 21.5702 22.8929 21.5282 22.96C21.4861 23.0272 21.4566 23.0635 21.4395 23.069C21.4225 23.0744 21.4077 23.0926 21.3952 23.1234C21.3782 23.1289 21.3611 23.1344 21.3441 23.1399C21.2895 23.2379 21.2009 23.3468 21.0782 23.4667C20.9725 23.5811 20.8941 23.6466 20.8429 23.663L20.8173 23.6713C20.7832 23.6822 20.7537 23.7185 20.7287 23.7802L20.71 23.8265L20.5889 23.9056C20.5594 23.9419 20.5213 23.981 20.4747 24.0228C20.4281 24.0646 20.3878 24.0909 20.3537 24.1019C20.3412 24.1327 20.3349 24.1482 20.3349 24.1482C20.3304 24.1228 20.3281 24.1101 20.3281 24.1101C20.3031 24.1718 20.265 24.2109 20.2139 24.2273C20.1968 24.2328 20.1883 24.2355 20.1883 24.2355C20.1838 24.2102 20.173 24.2002 20.1559 24.2057C20.1389 24.2112 20.1116 24.2602 20.0741 24.3527L19.9462 24.3938C19.9508 24.4192 19.936 24.4373 19.9019 24.4483L19.8764 24.4565C19.8593 24.462 19.836 24.4829 19.8065 24.5192C19.7769 24.5555 19.7536 24.5764 19.7366 24.5819C19.7195 24.5874 19.7133 24.6028 19.7178 24.6282C19.7178 24.6282 19.7093 24.6309 19.6923 24.6364C19.6877 24.611 19.6769 24.6011 19.6599 24.6066L19.6343 24.6148L19.4945 24.7402L19.4178 24.7649C19.3666 24.7813 19.3047 24.7878 19.2319 24.7844C19.1762 24.7755 19.1166 24.7947 19.0529 24.8419C19.0359 24.8474 19.0296 24.8628 19.0342 24.8882C19.0342 24.8882 19.0257 24.8909 19.0086 24.8964L18.9575 24.9129C18.9575 24.9129 18.9489 24.9156 18.9319 24.9211C18.9319 24.9211 18.9256 24.9365 18.9131 24.9673C18.9086 24.942 18.8978 24.9321 18.8807 24.9375L18.7273 24.9869C18.7227 24.9615 18.7119 24.9516 18.6949 24.9571C18.6778 24.9625 18.6631 24.9807 18.6506 25.0115C18.6335 25.017 18.6165 25.0225 18.5994 25.028C18.4971 25.0609 18.4113 25.0348 18.3419 24.9499C18.2726 24.8649 18.1743 24.8697 18.047 24.9643C18.0424 24.9389 18.0316 24.929 18.0146 24.9345C17.993 24.9146 17.9799 24.892 17.9753 24.8666L17.9498 24.8749C17.9248 24.9365 17.9146 24.98 17.9191 25.0054C17.9066 25.0362 17.9134 25.0742 17.9396 25.1195C17.9782 25.1339 17.9936 25.1691 17.9857 25.2253C18.0073 25.2452 18.0226 25.2805 18.0317 25.3312C18.0533 25.3511 18.0727 25.3583 18.0897 25.3528C18.1034 25.4288 18.1426 25.4967 18.2074 25.5563C18.212 25.5816 18.225 25.6042 18.2466 25.6241C18.2853 25.6385 18.2961 25.6484 18.279 25.6539C18.3006 25.6738 18.32 25.681 18.337 25.6755C18.3541 25.67 18.3671 25.6926 18.3762 25.7433L18.4735 25.8328L18.499 25.8245C18.6707 25.8766 18.8378 25.9033 19.0003 25.9047C19.1754 25.8752 19.3032 25.8341 19.3839 25.7813Z" fill="#991414"/>
</g>
<g filter="url(#filter3_f_184_10)">
<path d="M22.4923 14.7721H19.8383C19.6814 13.7011 19.4067 12.7603 19.0143 11.9496C18.6291 11.1388 18.1582 10.4582 17.6017 9.90775C17.0524 9.34726 16.4424 8.92688 15.7717 8.64663C15.1011 8.36638 14.4019 8.22626 13.6742 8.22626C12.3472 8.22626 11.1451 8.69668 10.0678 9.63751C8.99764 10.5784 8.14508 11.9646 7.51012 13.7962C6.88229 15.6278 6.56838 17.8748 6.56838 20.5372C6.56838 23.1996 6.88229 25.4466 7.51012 27.2782C8.14508 29.1098 8.99764 30.4961 10.0678 31.4369C11.1451 32.3777 12.3472 32.8481 13.6742 32.8481C14.4019 32.8481 15.1011 32.708 15.7717 32.4278C16.4424 32.1475 17.0524 31.7322 17.6017 31.1817C18.1582 30.6212 18.6291 29.9356 19.0143 29.1248C19.4067 28.3041 19.6814 27.3633 19.8383 26.3023H22.4923C22.2926 27.8737 21.9287 29.28 21.4008 30.5211C20.8728 31.7622 20.2165 32.8181 19.4317 33.6889C18.6469 34.5497 17.7658 35.2052 16.7884 35.6556C15.8181 36.106 14.7801 36.3312 13.6742 36.3312C11.805 36.3312 10.1427 35.6907 8.68729 34.4095C7.23188 33.1284 6.08681 31.3068 5.25208 28.9447C4.41736 26.5826 4 23.7801 4 20.5372C4 17.2943 4.41736 14.4918 5.25208 12.1297C6.08681 9.76763 7.23188 7.94601 8.68729 6.66487C10.1427 5.38373 11.805 4.74316 13.6742 4.74316C14.7801 4.74316 15.8181 4.96836 16.7884 5.41876C17.7658 5.86917 18.6469 6.52975 19.4317 7.40053C20.2165 8.26129 20.8728 9.31223 21.4008 10.5533C21.9287 11.7844 22.2926 13.1907 22.4923 14.7721Z" fill="url(#paint2_linear_184_10)"/>
</g>
<path d="M23.1192 14.0289H20.4652C20.3083 12.958 20.0336 12.0171 19.6412 11.2064C19.2559 10.3957 18.7851 9.71508 18.2286 9.16459C17.6792 8.60409 17.0692 8.18372 16.3986 7.90347C15.728 7.62322 15.0288 7.4831 14.3011 7.4831C12.9741 7.4831 11.772 7.95351 10.6947 8.89435C9.62451 9.83519 8.77195 11.2214 8.13699 13.053C7.50917 14.8847 7.19526 17.1317 7.19526 19.794C7.19526 22.4564 7.50917 24.7034 8.13699 26.535C8.77195 28.3667 9.62451 29.7529 10.6947 30.6937C11.772 31.6346 12.9741 32.105 14.3011 32.105C15.0288 32.105 15.728 31.9649 16.3986 31.6846C17.0692 31.4044 17.6792 30.989 18.2286 30.4385C18.7851 29.878 19.2559 29.1924 19.6412 28.3817C20.0336 27.5609 20.3083 26.6201 20.4652 25.5592H23.1192C22.9194 27.1306 22.5556 28.5368 22.0276 29.7779C21.4997 31.019 20.8433 32.075 20.0586 32.9457C19.2738 33.8065 18.3927 34.4621 17.4153 34.9125C16.445 35.3629 15.4069 35.5881 14.3011 35.5881C12.4319 35.5881 10.7696 34.9475 9.31417 33.6664C7.85875 32.3852 6.71368 30.5636 5.87896 28.2015C5.04424 25.8394 4.62688 23.0369 4.62688 19.794C4.62688 16.5512 5.04424 13.7487 5.87896 11.3866C6.71368 9.02447 7.85875 7.20285 9.31417 5.92171C10.7696 4.64057 12.4319 4 14.3011 4C15.4069 4 16.445 4.2252 17.4153 4.6756C18.3927 5.126 19.2738 5.78659 20.0586 6.65736C20.8433 7.51813 21.4997 8.56906 22.0276 9.81017C22.5556 11.0413 22.9194 12.4475 23.1192 14.0289Z" fill="url(#paint3_linear_184_10)"/>
<defs>
<filter id="filter0_f_184_10" x="12.4642" y="10.1665" width="30.7496" height="28.2146" filterUnits="userSpaceOnUse" color-interpolation-filters="sRGB">
<feFlood flood-opacity="0" result="BackgroundImageFix"/>
<feBlend mode="normal" in="SourceGraphic" in2="BackgroundImageFix" result="shape"/>
<feGaussianBlur stdDeviation="2" result="effect1_foregroundBlur_184_10"/>
</filter>
<filter id="filter1_f_184_10" x="6.65746" y="12.6362" width="22.568" height="30.3431" filterUnits="userSpaceOnUse" color-interpolation-filters="sRGB">
<feFlood flood-opacity="0" result="BackgroundImageFix"/>
<feBlend mode="normal" in="SourceGraphic" in2="BackgroundImageFix" result="shape"/>
<feGaussianBlur stdDeviation="2" result="effect1_foregroundBlur_184_10"/>
</filter>
<filter id="filter2_d_184_10" x="11.3243" y="16.6362" width="26.568" height="30.3431" filterUnits="userSpaceOnUse" color-interpolation-filters="sRGB">
<feFlood flood-opacity="0" result="BackgroundImageFix"/>
<feColorMatrix in="SourceAlpha" type="matrix" values="0 0 0 0 0 0 0 0 0 0 0 0 0 0 0 0 0 0 127 0" result="hardAlpha"/>
<feOffset dx="8" dy="4"/>
<feGaussianBlur stdDeviation="2"/>
<feComposite in2="hardAlpha" operator="out"/>
<feColorMatrix type="matrix" values="0 0 0 0 0 0 0 0 0 0 0 0 0 0 0 0 0 0 0.25 0"/>
<feBlend mode="normal" in2="BackgroundImageFix" result="effect1_dropShadow_184_10"/>
<feBlend mode="normal" in="SourceGraphic" in2="effect1_dropShadow_184_10" result="shape"/>
</filter>
<filter id="filter3_f_184_10" x="0" y="0.743164" width="26.4923" height="39.5881" filterUnits="userSpaceOnUse" color-interpolation-filters="sRGB">
<feFlood flood-opacity="0" result="BackgroundImageFix"/>
<feBlend mode="normal" in="SourceGraphic" in2="BackgroundImageFix" result="shape"/>
<feGaussianBlur stdDeviation="2" result="effect1_foregroundBlur_184_10"/>
</filter>
<linearGradient id="paint0_linear_184_10" x1="29.768" y1="11.3189" x2="22.5771" y2="34.8125" gradientUnits="userSpaceOnUse">
<stop stop-color="#FF77EF" stop-opacity="0"/>
<stop offset="0.905" stop-color="#D84DC8"/>
</linearGradient>
<linearGradient id="paint1_linear_184_10" x1="28.9193" y1="10.4763" x2="21.7284" y2="33.9699" gradientUnits="userSpaceOnUse">
<stop stop-color="#FF77EF" stop-opacity="0"/>
<stop offset="0.905" stop-color="#FF77EF"/>
</linearGradient>
<linearGradient id="paint2_linear_184_10" x1="13.2462" y1="4.74316" x2="13.2462" y2="36.3312" gradientUnits="userSpaceOnUse">
<stop stop-color="#CA0000"/>
<stop offset="0.385" stop-color="#E30202"/>
<stop offset="0.72" stop-color="#D56EC9"/>
<stop offset="0.82" stop-color="#DA53B1"/>
<stop offset="0.97" stop-color="#C21A74"/>
</linearGradient>
<linearGradient id="paint3_linear_184_10" x1="13.873" y1="4" x2="13.873" y2="35.5881" gradientUnits="userSpaceOnUse">
<stop stop-color="#FF0202"/>
<stop offset="0.385" stop-color="#E30202"/>
<stop offset="0.71" stop-color="#D033A0"/>
<stop offset="0.82" stop-color="#CC3FBC"/>
<stop offset="0.97" stop-color="#B51068"/>
</linearGradient>
</defs>
</svg>
