<svg width="26" height="29" viewBox="0 0 26 29" fill="none" xmlns="http://www.w3.org/2000/svg">
<g filter="url(#filter0_f_184_9)">
<path d="M19.6081 8.97395C19.9687 16.2867 17.9571 15.8285 16.5425 16.8581C16.4696 17.4348 16.771 17.6859 16.9437 17.6364C15.7606 18.5287 13.1129 16.8916 12.7445 16.9831C13.5271 17.5669 13.7914 18.2994 13.8763 18.7571C12.5816 17.1432 10.3388 17.5738 9.54018 18.058C9.52561 16.4788 9.8113 12.9747 11.0706 11.5926L10.7582 12.9359C11.225 11.5003 12.977 8.81676 16.2503 9.56825L16.3873 9.61406L16.4557 9.63696L15.8333 10.6095C20.3064 11.3544 19.4417 8.59626 19.6081 8.97395Z" fill="#E60000"/>
<path d="M19.6081 8.97395C19.9687 16.2867 17.9571 15.8285 16.5425 16.8581C16.4696 17.4348 16.771 17.6859 16.9437 17.6364C15.7606 18.5287 13.1129 16.8916 12.7445 16.9831C13.5271 17.5669 13.7914 18.2994 13.8763 18.7571C12.5816 17.1432 10.3388 17.5738 9.54018 18.058C9.52561 16.4788 9.8113 12.9747 11.0706 11.5926L10.7582 12.9359C11.225 11.5003 12.977 8.81676 16.2503 9.56825L16.3873 9.61406L16.4557 9.63696L15.8333 10.6095C20.3064 11.3544 19.4417 8.59626 19.6081 8.97395Z" fill="url(#paint0_linear_184_9)"/>
</g>
<path d="M19.2308 8.56465C19.5915 15.8774 17.5799 15.4192 16.1653 16.4488C16.0924 17.0255 16.3937 17.2766 16.5665 17.2271C15.3833 18.1194 12.7357 16.4823 12.3673 16.5738C13.1499 17.1576 13.4142 17.8901 13.4991 18.3478C12.2044 16.7339 9.96153 17.1645 9.16295 17.6487C9.14838 16.0695 9.43407 12.5654 10.6934 11.1833L10.3809 12.5266C10.8478 11.091 12.5998 8.40746 15.8731 9.15895L16.01 9.20475L16.0785 9.22766L15.4561 10.2002C19.9292 10.9451 19.0645 8.18696 19.2308 8.56465Z" fill="#FF0202"/>
<path d="M19.2308 8.56465C19.5915 15.8774 17.5799 15.4192 16.1653 16.4488C16.0924 17.0255 16.3937 17.2766 16.5665 17.2271C15.3833 18.1194 12.7357 16.4823 12.3673 16.5738C13.1499 17.1576 13.4142 17.8901 13.4991 18.3478C12.2044 16.7339 9.96153 17.1645 9.16295 17.6487C9.14838 16.0695 9.43407 12.5654 10.6934 11.1833L10.3809 12.5266C10.8478 11.091 12.5998 8.40746 15.8731 9.15895L16.01 9.20475L16.0785 9.22766L15.4561 10.2002C19.9292 10.9451 19.0645 8.18696 19.2308 8.56465Z" fill="url(#paint1_linear_184_9)"/>
<g filter="url(#filter1_f_184_9)">
<path d="M9.00183 20.9433C8.95231 20.9346 8.90003 20.9334 8.84496 20.9398C8.79747 20.9434 8.74518 20.9423 8.6881 20.9363L8.75403 20.9717C8.72372 20.9824 8.69139 20.9807 8.65703 20.9667C8.63228 20.9624 8.60954 20.9704 8.58884 20.9907L8.3577 20.9742L8.3433 20.9598C8.3049 20.9211 8.26751 20.8887 8.23112 20.8624C8.19474 20.8361 8.15206 20.8446 8.10306 20.8879C8.12024 20.8949 8.13641 20.8957 8.15156 20.8904C8.16672 20.885 8.18011 20.8934 8.19173 20.9153L8.169 20.9233C8.13869 20.934 8.11393 20.9296 8.09473 20.9103C8.07553 20.891 8.05254 20.8731 8.02576 20.8564C7.89389 20.7855 7.77034 20.6922 7.65513 20.5764L7.65209 20.5579C7.61167 20.507 7.57882 20.4534 7.55354 20.3971C7.52625 20.3286 7.49062 20.2825 7.44666 20.2588L7.43529 20.2628C7.40042 20.1969 7.36453 20.1249 7.32764 20.0467C7.29629 19.9535 7.26596 19.8664 7.23664 19.7856C7.23057 19.7486 7.22172 19.7192 7.21009 19.6972C7.20402 19.6603 7.19795 19.6233 7.19188 19.5864C7.18379 19.5371 7.1767 19.494 7.17063 19.4571C7.17011 19.4052 7.1696 19.3532 7.16908 19.3013C7.13524 19.3393 7.11326 19.3274 7.10314 19.2659C7.0733 19.1331 7.04725 18.9989 7.02499 18.8635C7.01031 18.7254 6.99739 18.5736 6.98624 18.4082L6.9748 18.1191C6.97984 18.0522 6.99549 18.0011 7.02175 17.9659C7.04801 17.9306 7.0523 17.8835 7.0346 17.8246C7.02702 17.8272 7.02046 17.8361 7.0149 17.851C7.00935 17.866 6.999 17.8762 6.98384 17.8815C6.98384 17.8815 6.98005 17.8828 6.97247 17.8855C6.97045 17.8732 6.96843 17.8609 6.9664 17.8485L6.97777 17.8445L6.97473 17.8261C6.96513 17.8164 6.96412 17.8103 6.9717 17.8076C6.97928 17.8049 6.97826 17.7988 6.96866 17.7891L6.96563 17.7707C6.95551 17.7091 6.95676 17.6435 6.96937 17.574C6.97996 17.4921 6.98676 17.4115 6.98977 17.3323C6.99481 17.2654 7.00843 17.202 7.03065 17.1421C7.06044 17.0795 7.06169 17.014 7.03439 16.9454L7.00029 16.9574C7.01898 16.9248 7.0263 16.8962 7.02225 16.8715L7.03058 16.8491L7.08049 16.4212L7.09186 16.4172C7.15248 16.3959 7.17495 16.362 7.15928 16.3154C7.15118 16.2661 7.14208 16.2107 7.13196 16.1491L7.12892 16.1307L7.18039 15.8586C7.21978 15.8057 7.24098 15.7396 7.244 15.6604C7.24499 15.5689 7.25659 15.4931 7.2788 15.4332C7.28384 15.3663 7.29848 15.3091 7.32271 15.2615C7.34493 15.2016 7.36234 15.1368 7.37496 15.0673C7.40423 14.9528 7.43452 14.8445 7.46582 14.7423C7.49509 14.6278 7.52916 14.5181 7.56804 14.4133C7.60188 14.3753 7.62334 14.3352 7.63242 14.293C7.64151 14.2507 7.65337 14.2009 7.66801 14.1437C7.66598 14.1314 7.66497 14.1252 7.66497 14.1252C7.67255 14.1226 7.67532 14.1151 7.6733 14.1028C7.68794 14.0455 7.71319 14.0041 7.74905 13.9784C7.78491 13.9528 7.80536 13.9066 7.8104 13.8397C7.81544 13.7728 7.82906 13.7094 7.85128 13.6494C7.89571 13.5296 7.94493 13.4146 7.99896 13.3045C8.05097 13.182 8.10399 13.0657 8.15802 12.9555C8.20146 12.9272 8.23354 12.9029 8.25424 12.8826C8.27293 12.85 8.2762 12.7967 8.26406 12.7229L8.27542 12.7189C8.34258 12.5911 8.41076 12.4694 8.47994 12.3539C8.54913 12.2384 8.61554 12.1304 8.67917 12.0299C8.72967 11.947 8.77739 11.8716 8.82234 11.8037C8.87486 11.7332 8.9236 11.664 8.96854 11.5961L9.00264 11.5841C9.03295 11.5734 9.05366 11.5531 9.06477 11.5232C9.07587 11.4932 9.08976 11.4558 9.10642 11.4108L9.11778 11.4068C9.61173 10.8034 10.0974 10.4178 10.5748 10.2501C10.6354 10.2288 10.7008 10.2123 10.771 10.2007C10.8392 10.1767 10.9046 10.1602 10.9673 10.1512C11.3356 10.1 11.6359 10.1963 11.8684 10.4403C12.0988 10.6719 12.2433 10.9663 12.302 11.3234C12.3223 11.4466 12.3322 11.5798 12.3317 11.7233C12.3933 11.6105 12.4473 11.5003 12.4938 11.3928C12.5402 11.2853 12.5733 11.1695 12.593 11.0453C12.602 11.0031 12.619 10.9841 12.6437 10.9884C12.6665 10.9804 12.6733 10.9976 12.6642 11.0398C12.6597 11.1587 12.6307 11.2991 12.5771 11.4612C12.5216 11.611 12.4565 11.7511 12.3817 11.8816C12.3838 11.8939 12.3719 11.9436 12.3462 12.0308C12.3184 12.1057 12.3103 12.1541 12.3219 12.1761C12.324 12.1884 12.3166 12.217 12.3 12.262C12.2889 12.2919 12.2816 12.3205 12.278 12.3478L12.2258 12.542C12.2258 12.542 12.2268 12.5482 12.2288 12.5605C12.2288 12.5605 12.226 12.568 12.2205 12.583C12.2205 12.583 12.2074 12.6006 12.1811 12.6359C12.17 12.6659 12.1543 12.7169 12.1342 12.7892C12.1215 12.8587 12.0983 12.9125 12.0645 12.9504L12.0251 13.0033C12.0195 13.0183 12.015 13.0395 12.0115 13.0667C12.0059 13.0817 11.9976 13.1042 11.9865 13.1341C11.9642 13.1941 11.9175 13.2756 11.8463 13.3788C11.7807 13.467 11.7329 13.5424 11.7032 13.6049C11.7032 13.6049 11.6966 13.6138 11.6835 13.6314C11.6703 13.649 11.6544 13.6742 11.6357 13.7068L11.6047 13.7372C11.5971 13.7399 11.584 13.7575 11.5653 13.7902C11.5542 13.8201 11.5458 13.8426 11.5403 13.8575C11.5347 13.8725 11.5244 13.8827 11.5092 13.888C11.5016 13.8907 11.4923 13.907 11.4812 13.9369C11.4756 13.9519 11.4653 13.9621 11.4501 13.9674C11.435 13.9727 11.4219 13.9903 11.4107 14.0203L11.2524 14.1541C11.2468 14.1691 11.2282 14.2017 11.1963 14.252C11.1701 14.2872 11.1532 14.3062 11.1456 14.3089L11.1229 14.3169C11.1153 14.3195 11.1087 14.3283 11.1032 14.3433C11.1052 14.3556 11.0986 14.3644 11.0835 14.3698C11.0779 14.3848 11.0676 14.3949 11.0524 14.4002C11.0428 14.3906 11.0314 14.3946 11.0183 14.4122C11.0107 14.4149 11.0014 14.4312 10.9903 14.4611C10.9847 14.4761 10.9782 14.4849 10.9706 14.4876L10.9365 14.4996L10.8774 14.579C10.8491 14.6019 10.816 14.6201 10.7781 14.6334C10.7478 14.644 10.7157 14.6683 10.6819 14.7063C10.6743 14.7089 10.6582 14.7081 10.6334 14.7038C10.6162 14.6968 10.6001 14.696 10.5849 14.7013C10.5228 14.7622 10.4576 14.8046 10.3894 14.8286C10.3839 14.8436 10.3763 14.8462 10.3667 14.8366C10.3647 14.8243 10.3599 14.8194 10.3523 14.8221C10.3447 14.8248 10.3419 14.8322 10.344 14.8446C10.344 14.8446 10.3402 14.8459 10.3326 14.8486C10.3326 14.8486 10.3212 14.8526 10.2985 14.8605C10.2813 14.8536 10.2679 14.8452 10.2583 14.8356L10.247 14.8396C10.2318 14.8449 10.2194 14.8427 10.2098 14.8331C10.2002 14.8234 10.1916 14.8199 10.1841 14.8226C10.1841 14.8226 10.1851 14.8288 10.1871 14.8411C10.1871 14.8411 10.1833 14.8424 10.1757 14.8451C10.1682 14.8477 10.1596 14.8442 10.15 14.8346C10.1348 14.8399 10.1073 14.8431 10.0674 14.8441C10.033 14.8301 10.011 14.8183 10.0014 14.8086C9.98072 14.8289 9.95596 14.8246 9.92716 14.7956C9.90796 14.7763 9.89937 14.7728 9.90139 14.7852L9.81272 14.7577C9.8107 14.7454 9.8059 14.7406 9.79832 14.7432C9.7963 14.7309 9.79528 14.7248 9.79528 14.7248L9.77255 14.7327C9.75335 14.7134 9.73996 14.7051 9.73238 14.7078C9.71873 14.6735 9.70711 14.6515 9.69751 14.6419C9.68791 14.6322 9.67351 14.6178 9.6543 14.5985C9.64621 14.5492 9.63837 14.5259 9.6308 14.5286C9.62675 14.5039 9.60931 14.471 9.57848 14.4297C9.55321 14.3735 9.53653 14.3207 9.52843 14.2715L9.51403 14.257C9.47563 14.2184 9.45388 14.1348 9.4488 14.0064C9.44626 13.9421 9.43842 13.9188 9.42529 13.9365C9.41014 13.9418 9.40785 13.9035 9.41844 13.8216L9.44492 13.617C9.4429 13.6046 9.43809 13.5998 9.43052 13.6025C9.42092 13.5928 9.41889 13.5805 9.42445 13.5655C9.42242 13.5532 9.42141 13.5471 9.42141 13.5471C9.42696 13.5321 9.42873 13.5184 9.42671 13.5061C9.43226 13.4912 9.432 13.4652 9.42593 13.4282C9.42188 13.4036 9.42264 13.3838 9.42819 13.3688C9.42617 13.3565 9.42969 13.3292 9.43878 13.287C9.45342 13.2297 9.46351 13.1936 9.46906 13.1786L9.51601 13.0254C9.52157 13.0104 9.53091 12.9941 9.54404 12.9764C9.55717 12.9588 9.5655 12.9363 9.56903 12.909C9.58014 12.8791 9.59327 12.8614 9.60842 12.8561C9.62913 12.8358 9.64125 12.812 9.64478 12.7847C9.65739 12.7152 9.67886 12.6751 9.70917 12.6644L9.7319 12.6564C9.76221 12.6458 9.77939 12.6528 9.78343 12.6774C9.79355 12.739 9.77891 12.7962 9.73952 12.8491C9.71731 12.909 9.7062 12.939 9.7062 12.939C9.70418 12.9267 9.69483 12.943 9.67817 12.9879C9.6802 13.0002 9.67363 13.0091 9.65848 13.0144C9.6509 13.017 9.64913 13.0307 9.65318 13.0553C9.6456 13.058 9.64662 13.0641 9.65622 13.0738C9.66582 13.0834 9.66885 13.1019 9.66532 13.1292C9.67342 13.1785 9.67747 13.2031 9.67747 13.2031C9.67191 13.2181 9.67495 13.2365 9.68657 13.2585C9.69617 13.2682 9.69921 13.2866 9.69568 13.3139C9.6881 13.3166 9.68154 13.3254 9.67598 13.3404L9.70711 13.603C9.70711 13.603 9.71697 13.6386 9.73669 13.7098C9.75439 13.7687 9.76046 13.8057 9.75491 13.8206L9.77008 13.913C9.77616 13.9499 9.81633 13.9749 9.89059 13.9879C9.90019 13.9975 9.90878 14.001 9.91636 13.9984C9.92949 13.9807 9.94086 13.9767 9.95046 13.9864C10.0571 14.001 10.1275 14.0153 10.1619 14.0293C10.1942 14.031 10.2634 14.0132 10.3695 13.9759L10.4604 13.9439C10.4983 13.9306 10.5314 13.9125 10.5597 13.8895C10.5673 13.8869 10.5683 13.893 10.5627 13.908C10.5627 13.908 10.5665 13.9067 10.5741 13.904L10.7044 13.8191C10.71 13.8041 10.7165 13.7953 10.7241 13.7927C10.7297 13.7777 10.7373 13.775 10.7469 13.7847C10.7544 13.782 10.762 13.7794 10.7696 13.7767L11.0014 13.578C11.0428 13.5374 11.0805 13.4981 11.1143 13.4602C11.1537 13.4072 11.1951 13.3666 11.2386 13.3383C11.3027 13.2898 11.3676 13.2214 11.4333 13.1332C11.4969 13.0326 11.5626 12.9444 11.6302 12.8686C11.6282 12.8562 11.6562 12.8073 11.7143 12.7218C11.78 12.6336 11.8484 12.5379 11.9196 12.4347L11.9234 12.238C11.9284 12.1711 11.9461 12.1323 11.9764 12.1217C12.0047 12.0987 12.0233 12.0661 12.0324 12.0238C12.0056 12.0072 11.9837 11.9954 11.9665 11.9884C11.9493 11.9814 11.9443 11.9506 11.9513 11.896L11.9483 11.8776L11.9565 11.562C11.9626 11.4036 11.9544 11.2567 11.9322 11.1212C11.8816 10.8134 11.7732 10.617 11.6069 10.5321C11.4407 10.4473 11.2591 10.4394 11.0621 10.5087C11.0318 10.5193 10.9977 10.5313 10.9598 10.5446C10.9295 10.5553 10.8964 10.5734 10.8605 10.599C10.7944 10.6353 10.7292 10.6778 10.665 10.7264C10.6009 10.7749 10.533 10.8249 10.4612 10.8761L10.4385 10.8841C10.4082 10.8948 10.3837 10.9164 10.365 10.949C10.3443 10.9693 10.3246 10.9958 10.3059 11.0284C10.2079 11.1149 10.1016 11.2239 9.98697 11.3554C9.92282 11.404 9.87964 11.4583 9.85742 11.5182C9.83116 11.5534 9.81424 11.5724 9.80666 11.5751L9.8097 11.5935C9.76828 11.6342 9.73242 11.6598 9.70211 11.6704C9.68696 11.6758 9.66801 11.6824 9.64528 11.6904C9.62052 11.6861 9.59678 11.6879 9.57405 11.6959C9.59123 11.7029 9.6036 11.705 9.61118 11.7024C9.61876 11.6997 9.62735 11.7032 9.63695 11.7129C9.6506 11.7471 9.64707 11.7744 9.62636 11.7947C9.61323 11.8124 9.6049 11.8348 9.60137 11.8621L9.59 11.8661C9.58445 11.8811 9.57132 11.8988 9.55061 11.9191C9.53748 11.9367 9.52536 11.9605 9.51425 11.9904C9.44808 12.0267 9.39353 12.085 9.35061 12.1652C9.31526 12.2427 9.28472 12.3251 9.25897 12.4123L9.24761 12.4163L9.03476 12.8037C8.98223 12.8743 8.93931 12.9545 8.90599 13.0443C8.82772 13.2021 8.75046 13.366 8.67422 13.5361C8.59797 13.7062 8.52173 13.8762 8.44548 14.0463L8.42275 14.0543C8.38487 14.0676 8.36517 14.0941 8.36366 14.1337C8.36771 14.1583 8.36722 14.2041 8.36218 14.271L8.35081 14.275C8.33618 14.3322 8.31674 14.3846 8.2925 14.4322C8.26421 14.4552 8.24932 14.4865 8.24781 14.5261C8.24631 14.5657 8.23722 14.608 8.22056 14.6529L8.16225 14.8102C8.12992 14.8085 8.09278 14.802 8.05085 14.7907C8.01447 14.7644 7.97733 14.7579 7.93945 14.7712C7.93945 14.7712 7.93667 14.7787 7.93112 14.7937C7.93112 14.7937 7.93314 14.806 7.93719 14.8306C7.98467 14.827 8.02762 14.8444 8.06602 14.8831C8.10443 14.9217 8.10975 14.9784 8.08198 15.0533L8.06532 15.0982C8.0431 15.1581 8.00825 15.1899 7.96076 15.1936C7.92085 15.1946 7.8908 15.2312 7.87061 15.3034C7.88779 15.3104 7.90775 15.3099 7.93048 15.3019C7.95321 15.2939 7.96964 15.3207 7.97975 15.3823C7.95401 15.4695 7.92827 15.5567 7.90252 15.6439C7.88435 15.7284 7.8624 15.8143 7.83665 15.9015C7.81444 15.9614 7.79702 16.0261 7.78441 16.0957C7.76977 16.1529 7.74655 16.2067 7.71473 16.257C7.70918 16.2719 7.70842 16.2917 7.71247 16.3164C7.72207 16.326 7.7241 16.3383 7.71854 16.3533L7.72158 16.3718L7.62394 16.875C7.59213 16.9253 7.56789 16.9729 7.55123 17.0178C7.53457 17.0627 7.53231 17.1221 7.54445 17.196C7.56666 17.1361 7.57878 17.1123 7.58081 17.1246L7.58384 17.1431C7.58789 17.1677 7.58436 17.195 7.57325 17.225C7.56012 17.2426 7.55179 17.2651 7.54826 17.2924L7.52786 17.534C7.49863 17.8439 7.48707 18.115 7.49319 18.3473C7.48618 18.5972 7.49987 18.8269 7.53428 19.0362C7.53479 19.0881 7.52773 19.1427 7.5131 19.2C7.50401 19.2422 7.51488 19.284 7.54571 19.3253C7.56491 19.3446 7.57931 19.3591 7.58892 19.3687C7.59649 19.366 7.60433 19.3893 7.61242 19.4386C7.62254 19.5002 7.63341 19.5419 7.64504 19.5639L7.65415 19.6193C7.66022 19.6563 7.65871 19.6959 7.64963 19.7381C7.64054 19.7804 7.64283 19.8187 7.65647 19.853C7.66608 19.8626 7.68224 19.8634 7.70497 19.8555C7.72568 19.8352 7.74185 19.836 7.75347 19.858L7.85506 20.0372C7.88184 20.0538 7.90307 20.0854 7.91874 20.132C7.93441 20.1786 7.94806 20.2129 7.95968 20.2349C7.97889 20.2542 8.00188 20.2721 8.02866 20.2888C8.05341 20.2931 8.07261 20.3124 8.08626 20.3467C8.08829 20.359 8.08652 20.3727 8.08097 20.3876C8.08097 20.3876 8.08299 20.3999 8.08704 20.4246C8.12088 20.3866 8.11657 20.336 8.07412 20.2728C8.12768 20.3061 8.13578 20.3553 8.09841 20.4206C8.11356 20.4153 8.12872 20.4099 8.14387 20.4046C8.157 20.387 8.17114 20.3755 8.1863 20.3702C8.21661 20.3595 8.24995 20.3673 8.28633 20.3936C8.42376 20.4495 8.57128 20.4693 8.7289 20.453C8.89612 20.4464 9.07066 20.4111 9.25252 20.3472C9.4571 20.2753 9.67179 20.1673 9.89657 20.0232C10.1234 19.8913 10.3471 19.7411 10.5679 19.5723L10.5648 19.5539C10.58 19.5485 10.5924 19.5507 10.602 19.5603C10.6095 19.5577 10.6171 19.555 10.6247 19.5524C10.6626 19.539 10.6926 19.5024 10.7149 19.4425L10.8308 19.3432C10.8813 19.2603 10.93 19.1911 10.977 19.1355C11.0239 19.0799 11.0798 19.0538 11.1444 19.0571C11.1616 19.0641 11.1636 19.0764 11.1505 19.094C11.1429 19.0967 11.1412 19.1104 11.1452 19.135C11.1583 19.1173 11.1667 19.0949 11.1702 19.0676C11.1737 19.0403 11.1821 19.0178 11.1952 19.0002L11.2573 18.9393C11.3083 18.9083 11.3508 18.8739 11.3846 18.8359C11.4164 18.7857 11.453 18.7403 11.4945 18.6996L11.6073 18.5818C11.6245 18.5888 11.6407 18.5896 11.6558 18.5843C11.6861 18.5737 11.7069 18.5534 11.718 18.5234C11.727 18.4811 11.7437 18.4362 11.7679 18.3886C11.7755 18.386 11.7924 18.367 11.8187 18.3317C11.8525 18.2938 11.8912 18.2606 11.9346 18.2323C11.976 18.1917 12.0079 18.1415 12.0301 18.0816L12.0414 18.0776C12.1409 17.9514 12.2366 17.8266 12.3286 17.7032C12.4205 17.5797 12.5086 17.4575 12.5929 17.3367L12.8543 16.9518C12.8841 16.8892 12.9073 16.8355 12.924 16.7905C12.9406 16.7456 12.9679 16.7165 13.0058 16.7032L13.0141 16.6807C13.053 16.5759 13.0987 16.4882 13.1512 16.4176C13.2017 16.3347 13.2409 16.2558 13.2686 16.181C13.3151 16.0735 13.3535 16.0144 13.3838 16.0037C13.4065 15.9957 13.4219 16.0164 13.43 16.0656C13.4401 16.1272 13.4285 16.2029 13.3952 16.2928C13.3432 16.4153 13.2856 16.5527 13.2225 16.7052C13.1594 16.8576 13.0859 17.0202 13.0021 17.1929C12.9723 17.2555 12.9357 17.3009 12.8923 17.3292C12.8564 17.3548 12.837 17.4073 12.834 17.4865C12.7966 17.5517 12.7554 17.6183 12.7105 17.6862C12.6731 17.7514 12.6282 17.8193 12.5756 17.8899C12.5176 17.9754 12.4557 18.0623 12.39 18.1505C12.332 18.236 12.2663 18.3242 12.1931 18.4151C12.1703 18.4231 12.1438 18.4324 12.1135 18.443C12.0888 18.4387 12.065 18.4405 12.0423 18.4485C11.9892 18.4672 11.9544 18.4989 11.9377 18.5439C11.9377 18.5439 11.9387 18.55 11.9408 18.5623C11.9408 18.5623 11.9466 18.5733 11.9582 18.5953C11.9734 18.59 11.9885 18.5846 12.0037 18.5793C12.0168 18.5617 12.032 18.5564 12.0491 18.5633C12.0491 18.5633 12.0501 18.5695 12.0522 18.5818C12.0542 18.5941 12.0476 18.6029 12.0325 18.6083C12.0062 18.6436 11.9855 18.6639 11.9703 18.6692L11.9734 18.6877L11.9029 18.771L11.8916 18.775C11.8693 18.8349 11.8446 18.8306 11.8173 18.762C11.7966 18.7823 11.7779 18.815 11.7612 18.8599C11.7522 18.9022 11.7383 18.9396 11.7196 18.9722L11.6491 19.0556C11.6208 19.0786 11.5926 19.1015 11.5643 19.1245C11.534 19.1351 11.5143 19.1616 11.5052 19.2039L11.4938 19.2079C11.4676 19.2431 11.4337 19.2811 11.3923 19.3217C11.3564 19.3473 11.3216 19.3791 11.2877 19.4171L11.2908 19.4355L11.2339 19.4555C11.1961 19.4688 11.1534 19.4773 11.1059 19.481C11.0564 19.4723 11.0089 19.476 10.9634 19.4919C10.9846 19.5236 11.0142 19.5327 11.0521 19.5194C11.092 19.5184 11.1084 19.5452 11.1014 19.5998C11.1034 19.6121 11.1006 19.6196 11.093 19.6222L10.8188 19.8554L10.8218 19.8739C10.7935 19.8968 10.7604 19.915 10.7225 19.9283C10.6943 19.9512 10.667 19.9804 10.6407 20.0156C10.3654 20.2426 10.0879 20.4314 9.80804 20.5818C9.52819 20.7322 9.26324 20.8514 9.01319 20.9393L9.00183 20.9433ZM10.5409 14.58C10.5465 14.565 10.5606 14.5535 10.5834 14.5455C10.6116 14.5226 10.6323 14.5022 10.6455 14.4846L10.8895 14.3598C10.897 14.3571 10.9036 14.3483 10.9092 14.3333C10.9147 14.3184 10.9213 14.3095 10.9289 14.3069C10.9344 14.2919 10.9448 14.2817 10.9599 14.2764C10.9897 14.2138 11.0076 14.201 11.0137 14.238C11.0178 14.2626 11.0319 14.2511 11.0561 14.2035C11.0617 14.1886 11.072 14.1784 11.0872 14.1731C11.0983 14.1431 11.1077 14.1268 11.1152 14.1241C11.1284 14.1065 11.1377 14.0902 11.1433 14.0752C11.1564 14.0576 11.163 14.0488 11.163 14.0488C11.1609 14.0364 11.1675 14.0276 11.1826 14.0223L11.194 14.0183C11.2092 14.013 11.2327 13.9852 11.2645 13.9349C11.2963 13.8847 11.3122 13.8595 11.3122 13.8595C11.3198 13.8569 11.3253 13.8419 11.3289 13.8146C11.34 13.7847 11.3493 13.7684 11.3569 13.7657C11.3624 13.7507 11.3728 13.7406 11.3879 13.7352C11.4011 13.7176 11.4066 13.7026 11.4046 13.6903C11.4177 13.6727 11.4309 13.655 11.444 13.6374C11.4571 13.6197 11.4675 13.6096 11.4751 13.6069C11.4806 13.592 11.4927 13.5682 11.5114 13.5355C11.5377 13.5003 11.5498 13.4765 11.5478 13.4641C11.5589 13.4342 11.571 13.4104 11.5841 13.3928C11.6048 13.3725 11.618 13.3548 11.6235 13.3398C11.6442 13.3195 11.6872 13.2393 11.7523 13.0992C11.8154 12.9468 11.8641 12.7799 11.8984 12.5985C11.9095 12.5685 11.8805 12.6113 11.8113 12.7268C11.7477 12.8273 11.7131 12.885 11.7075 12.9C11.7 12.9027 11.6878 12.9265 11.6712 12.9714C11.6525 13.004 11.6394 13.0217 11.6318 13.0243L11.6151 13.0693L11.581 13.0812L11.5727 13.1037C11.5727 13.1037 11.5596 13.1213 11.5333 13.1566C11.5257 13.1593 11.5126 13.1769 11.4939 13.2095C11.4752 13.2422 11.4621 13.2598 11.4545 13.2625C11.4469 13.2651 11.4404 13.2739 11.4348 13.2889C11.4272 13.2916 11.4197 13.2942 11.4121 13.2969C11.3879 13.3445 11.3485 13.3974 11.2939 13.4557C11.2469 13.5113 11.2121 13.543 11.1894 13.551L11.178 13.555C11.1628 13.5603 11.1497 13.578 11.1386 13.6079L11.1303 13.6304L11.0765 13.6688C11.0633 13.6865 11.0464 13.7055 11.0257 13.7258C11.005 13.7461 10.9871 13.7589 10.9719 13.7642C10.9664 13.7792 10.9636 13.7867 10.9636 13.7867C10.9616 13.7744 10.9606 13.7682 10.9606 13.7682C10.9494 13.7982 10.9325 13.8171 10.9098 13.8251C10.9022 13.8278 10.8984 13.8291 10.8984 13.8291C10.8964 13.8168 10.8916 13.812 10.884 13.8146C10.8764 13.8173 10.8643 13.8411 10.8477 13.886L10.7908 13.906C10.7929 13.9183 10.7863 13.9271 10.7711 13.9324L10.7598 13.9364C10.7522 13.9391 10.7418 13.9493 10.7287 13.9669C10.7156 13.9845 10.7052 13.9947 10.6977 13.9974C10.6901 14 10.6873 14.0075 10.6893 14.0198C10.6893 14.0198 10.6855 14.0211 10.678 14.0238C10.6759 14.0115 10.6711 14.0067 10.6636 14.0093L10.6522 14.0133L10.5901 14.0742L10.556 14.0862C10.5332 14.0942 10.5057 14.0974 10.4734 14.0957C10.4486 14.0914 10.4221 14.1007 10.3938 14.1237C10.3862 14.1263 10.3834 14.1338 10.3855 14.1461C10.3855 14.1461 10.3817 14.1475 10.3741 14.1501L10.3514 14.1581C10.3514 14.1581 10.3476 14.1594 10.34 14.1621C10.34 14.1621 10.3372 14.1696 10.3317 14.1846C10.3297 14.1723 10.3249 14.1674 10.3173 14.1701L10.2491 14.1941C10.2471 14.1817 10.2423 14.1769 10.2347 14.1796C10.2271 14.1822 10.2205 14.1911 10.215 14.206C10.2074 14.2087 10.1998 14.2114 10.1923 14.214C10.1468 14.23 10.1086 14.2174 10.0778 14.1761C10.047 14.1348 10.0033 14.1372 9.94672 14.1831C9.94469 14.1708 9.93989 14.1659 9.93231 14.1686C9.92271 14.159 9.9169 14.148 9.91488 14.1357L9.90351 14.1397C9.8924 14.1696 9.88786 14.1907 9.88989 14.2031C9.88433 14.218 9.88737 14.2365 9.89899 14.2585C9.91617 14.2655 9.92299 14.2826 9.91947 14.3099C9.92907 14.3195 9.93589 14.3367 9.93994 14.3613C9.94954 14.371 9.95813 14.3745 9.96571 14.3718C9.97178 14.4087 9.98921 14.4417 10.018 14.4706C10.02 14.483 10.0259 14.4939 10.0355 14.5036C10.0526 14.5106 10.0574 14.5154 10.0499 14.5181C10.0595 14.5277 10.068 14.5312 10.0756 14.5286C10.0832 14.5259 10.089 14.5369 10.0931 14.5615L10.1363 14.6049L10.1476 14.6009C10.2239 14.6262 10.2982 14.6392 10.3704 14.6399C10.4482 14.6256 10.5051 14.6056 10.5409 14.58Z" fill="#CF0094"/>
</g>
<g filter="url(#filter2_d_184_9)">
<path d="M9.29821 20.9433C9.2487 20.9346 9.19641 20.9334 9.14135 20.9398C9.09386 20.9434 9.04157 20.9423 8.98448 20.9363L9.05042 20.9717C9.02011 20.9824 8.98778 20.9807 8.95342 20.9667C8.92866 20.9624 8.90593 20.9704 8.88522 20.9907L8.65409 20.9742L8.63969 20.9598C8.60128 20.9211 8.56389 20.8887 8.52751 20.8624C8.49113 20.8361 8.44844 20.8446 8.39945 20.8879C8.41663 20.8949 8.43279 20.8957 8.44795 20.8904C8.4631 20.885 8.47649 20.8934 8.48812 20.9153L8.46539 20.9233C8.43508 20.934 8.41032 20.9296 8.39112 20.9103C8.37192 20.891 8.34893 20.8731 8.32215 20.8564C8.19027 20.7855 8.06673 20.6922 7.95152 20.5764L7.94848 20.5579C7.90805 20.507 7.8752 20.4534 7.84993 20.3971C7.82263 20.3286 7.787 20.2825 7.74305 20.2588L7.73168 20.2628C7.69681 20.1969 7.66092 20.1249 7.62402 20.0467C7.59268 19.9535 7.56235 19.8664 7.53302 19.7856C7.52695 19.7486 7.51811 19.7192 7.50648 19.6972C7.50041 19.6603 7.49434 19.6233 7.48827 19.5864C7.48017 19.5371 7.47309 19.494 7.46702 19.4571C7.4665 19.4052 7.46598 19.3532 7.46547 19.3013C7.43163 19.3393 7.40965 19.3274 7.39953 19.2659C7.36969 19.1331 7.34364 18.9989 7.32138 18.8635C7.3067 18.7254 7.29378 18.5736 7.28263 18.4082L7.27119 18.1191C7.27623 18.0522 7.29187 18.0011 7.31814 17.9659C7.3444 17.9306 7.34868 17.8835 7.33099 17.8246C7.32341 17.8272 7.31684 17.8361 7.31129 17.851C7.30574 17.866 7.29538 17.8762 7.28023 17.8815C7.28023 17.8815 7.27644 17.8828 7.26886 17.8855C7.26684 17.8732 7.26481 17.8609 7.26279 17.8485L7.27416 17.8445L7.27112 17.8261C7.26152 17.8164 7.26051 17.8103 7.26808 17.8076C7.27566 17.8049 7.27465 17.7988 7.26505 17.7891L7.26201 17.7707C7.2519 17.7091 7.25314 17.6435 7.26576 17.574C7.27635 17.4921 7.28315 17.4115 7.28616 17.3323C7.2912 17.2654 7.30482 17.202 7.32704 17.1421C7.35683 17.0795 7.35808 17.014 7.33078 16.9454L7.29668 16.9574C7.31536 16.9248 7.32268 16.8962 7.31864 16.8715L7.32697 16.8491L7.37688 16.4212L7.38825 16.4172C7.44886 16.3959 7.47134 16.362 7.45567 16.3154C7.44757 16.2661 7.43846 16.2107 7.42835 16.1491L7.42531 16.1307L7.47678 15.8586C7.51617 15.8057 7.53737 15.7396 7.54038 15.6604C7.54137 15.5689 7.55297 15.4931 7.57519 15.4332C7.58023 15.3663 7.59486 15.3091 7.6191 15.2615C7.64132 15.2016 7.65873 15.1368 7.67134 15.0673C7.70062 14.9528 7.7309 14.8445 7.7622 14.7423C7.79148 14.6278 7.82555 14.5181 7.86443 14.4133C7.89827 14.3753 7.91973 14.3352 7.92881 14.293C7.93789 14.2507 7.94976 14.2009 7.96439 14.1437C7.96237 14.1314 7.96136 14.1252 7.96136 14.1252C7.96893 14.1226 7.97171 14.1151 7.96969 14.1028C7.98432 14.0455 8.00957 14.0041 8.04544 13.9784C8.0813 13.9528 8.10175 13.9066 8.10679 13.8397C8.11182 13.7728 8.12545 13.7094 8.14766 13.6494C8.19209 13.5296 8.24132 13.4146 8.29535 13.3045C8.34736 13.182 8.40038 13.0657 8.45441 12.9555C8.49785 12.9272 8.52992 12.9029 8.55063 12.8826C8.56931 12.85 8.57259 12.7967 8.56044 12.7229L8.57181 12.7189C8.63897 12.5911 8.70714 12.4694 8.77633 12.3539C8.84551 12.2384 8.91192 12.1304 8.97555 12.0299C9.02605 11.947 9.07378 11.8716 9.11872 11.8037C9.17125 11.7332 9.21998 11.664 9.26493 11.5961L9.29903 11.5841C9.32934 11.5734 9.35005 11.5531 9.36115 11.5232C9.37226 11.4932 9.38614 11.4558 9.40281 11.4108L9.41417 11.4068C9.90811 10.8034 10.3938 10.4178 10.8711 10.2501C10.9318 10.2288 10.9972 10.2123 11.0674 10.2007C11.1356 10.1767 11.201 10.1602 11.2637 10.1512C11.6319 10.1 11.9323 10.1963 12.1648 10.4403C12.3952 10.6719 12.5397 10.9663 12.5984 11.3234C12.6187 11.4466 12.6285 11.5798 12.6281 11.7233C12.6897 11.6105 12.7437 11.5003 12.7902 11.3928C12.8366 11.2853 12.8697 11.1695 12.8894 11.0453C12.8984 11.0031 12.9154 10.9841 12.9401 10.9884C12.9628 10.9804 12.9697 10.9976 12.9606 11.0398C12.9561 11.1587 12.927 11.2991 12.8735 11.4612C12.818 11.611 12.7529 11.7511 12.6781 11.8816C12.6801 11.8939 12.6683 11.9436 12.6425 12.0308C12.6148 12.1057 12.6067 12.1541 12.6183 12.1761C12.6204 12.1884 12.613 12.217 12.5964 12.262C12.5853 12.2919 12.5779 12.3205 12.5744 12.3478L12.5222 12.542C12.5222 12.542 12.5232 12.5482 12.5252 12.5605C12.5252 12.5605 12.5224 12.568 12.5169 12.583C12.5169 12.583 12.5037 12.6006 12.4775 12.6359C12.4664 12.6659 12.4507 12.7169 12.4305 12.7892C12.4179 12.8587 12.3947 12.9125 12.3609 12.9504L12.3215 13.0033C12.3159 13.0183 12.3114 13.0395 12.3078 13.0667C12.3023 13.0817 12.294 13.1042 12.2828 13.1341C12.2606 13.1941 12.2139 13.2756 12.1427 13.3788C12.0771 13.467 12.0293 13.5424 11.9995 13.6049C11.9995 13.6049 11.993 13.6138 11.9798 13.6314C11.9667 13.649 11.9508 13.6742 11.9321 13.7068L11.9011 13.7372C11.8935 13.7399 11.8804 13.7575 11.8617 13.7902C11.8506 13.8201 11.8422 13.8426 11.8367 13.8575C11.8311 13.8725 11.8208 13.8827 11.8056 13.888C11.798 13.8907 11.7887 13.907 11.7776 13.9369C11.772 13.9519 11.7617 13.9621 11.7465 13.9674C11.7314 13.9727 11.7182 13.9903 11.7071 14.0203L11.5488 14.1541C11.5432 14.1691 11.5245 14.2017 11.4927 14.252C11.4665 14.2872 11.4495 14.3062 11.442 14.3089L11.4192 14.3169C11.4117 14.3195 11.4051 14.3283 11.3995 14.3433C11.4016 14.3556 11.395 14.3644 11.3798 14.3698C11.3743 14.3848 11.3639 14.3949 11.3488 14.4002C11.3392 14.3906 11.3278 14.3946 11.3147 14.4122C11.3071 14.4149 11.2978 14.4312 11.2867 14.4611C11.2811 14.4761 11.2745 14.4849 11.267 14.4876L11.2329 14.4996L11.1738 14.579C11.1455 14.6019 11.1124 14.6201 11.0745 14.6334C11.0442 14.644 11.0121 14.6683 10.9783 14.7063C10.9707 14.7089 10.9545 14.7081 10.9298 14.7038C10.9126 14.6968 10.8964 14.696 10.8813 14.7013C10.8192 14.7622 10.754 14.8046 10.6858 14.8286C10.6803 14.8436 10.6727 14.8462 10.6631 14.8366C10.6611 14.8243 10.6563 14.8194 10.6487 14.8221C10.6411 14.8248 10.6383 14.8322 10.6403 14.8446C10.6403 14.8446 10.6366 14.8459 10.629 14.8486C10.629 14.8486 10.6176 14.8526 10.5949 14.8605C10.5777 14.8536 10.5643 14.8452 10.5547 14.8356L10.5433 14.8396C10.5282 14.8449 10.5158 14.8427 10.5062 14.8331C10.4966 14.8234 10.488 14.8199 10.4804 14.8226C10.4804 14.8226 10.4815 14.8288 10.4835 14.8411C10.4835 14.8411 10.4797 14.8424 10.4721 14.8451C10.4645 14.8477 10.4559 14.8442 10.4463 14.8346C10.4312 14.8399 10.4037 14.8431 10.3637 14.8441C10.3294 14.8301 10.3074 14.8183 10.2978 14.8086C10.2771 14.8289 10.2523 14.8246 10.2235 14.7956C10.2043 14.7763 10.1958 14.7728 10.1978 14.7852L10.1091 14.7577C10.1071 14.7454 10.1023 14.7406 10.0947 14.7432C10.0927 14.7309 10.0917 14.7248 10.0917 14.7248L10.0689 14.7327C10.0497 14.7134 10.0363 14.7051 10.0288 14.7078C10.0151 14.6735 10.0035 14.6515 9.9939 14.6419C9.98429 14.6322 9.96989 14.6178 9.95069 14.5985C9.9426 14.5492 9.93476 14.5259 9.92718 14.5286C9.92314 14.5039 9.9057 14.471 9.87487 14.4297C9.8496 14.3735 9.83291 14.3207 9.82482 14.2715L9.81042 14.257C9.77201 14.2184 9.75027 14.1348 9.74519 14.0064C9.74265 13.9421 9.73481 13.9188 9.72168 13.9365C9.70652 13.9418 9.70424 13.9035 9.71483 13.8216L9.74131 13.617C9.73928 13.6046 9.73448 13.5998 9.7269 13.6025C9.7173 13.5928 9.71528 13.5805 9.72083 13.5655C9.71881 13.5532 9.7178 13.5471 9.7178 13.5471C9.72335 13.5321 9.72512 13.5184 9.72309 13.5061C9.72865 13.4912 9.72839 13.4652 9.72232 13.4282C9.71827 13.4036 9.71902 13.3838 9.72458 13.3688C9.72255 13.3565 9.72608 13.3292 9.73517 13.287C9.7498 13.2297 9.7599 13.1936 9.76545 13.1786L9.8124 13.0254C9.81795 13.0104 9.82729 12.9941 9.84043 12.9764C9.85356 12.9588 9.86189 12.9363 9.86542 12.909C9.87652 12.8791 9.88966 12.8614 9.90481 12.8561C9.92552 12.8358 9.93764 12.812 9.94117 12.7847C9.95378 12.7152 9.97524 12.6751 10.0056 12.6644L10.0283 12.6564C10.0586 12.6458 10.0758 12.6528 10.0798 12.6774C10.0899 12.739 10.0753 12.7962 10.0359 12.8491C10.0137 12.909 10.0026 12.939 10.0026 12.939C10.0006 12.9267 9.99122 12.943 9.97456 12.9879C9.97658 13.0002 9.97002 13.0091 9.95486 13.0144C9.94729 13.017 9.94552 13.0307 9.94957 13.0553C9.94199 13.058 9.943 13.0641 9.9526 13.0738C9.9622 13.0834 9.96524 13.1019 9.96171 13.1292C9.9698 13.1785 9.97385 13.2031 9.97385 13.2031C9.9683 13.2181 9.97133 13.2365 9.98296 13.2585C9.99256 13.2682 9.9956 13.2866 9.99207 13.3139C9.98449 13.3166 9.97792 13.3254 9.97237 13.3404L10.0035 13.603C10.0035 13.603 10.0134 13.6386 10.0331 13.7098C10.0508 13.7687 10.0568 13.8057 10.0513 13.8206L10.0665 13.913C10.0725 13.9499 10.1127 13.9749 10.187 13.9879C10.1966 13.9975 10.2052 14.001 10.2127 13.9984C10.2259 13.9807 10.2372 13.9767 10.2468 13.9864C10.3534 14.001 10.4239 14.0153 10.4583 14.0293C10.4906 14.031 10.5598 14.0132 10.6659 13.9759L10.7568 13.9439C10.7947 13.9306 10.8278 13.9125 10.8561 13.8895C10.8637 13.8869 10.8647 13.893 10.8591 13.908C10.8591 13.908 10.8629 13.9067 10.8705 13.904L11.0008 13.8191C11.0064 13.8041 11.0129 13.7953 11.0205 13.7927C11.0261 13.7777 11.0336 13.775 11.0432 13.7847C11.0508 13.782 11.0584 13.7794 11.066 13.7767L11.2978 13.578C11.3392 13.5374 11.3769 13.4981 11.4107 13.4602C11.4501 13.4072 11.4915 13.3666 11.5349 13.3383C11.5991 13.2898 11.664 13.2214 11.7297 13.1332C11.7933 13.0326 11.8589 12.9444 11.9266 12.8686C11.9246 12.8562 11.9526 12.8073 12.0107 12.7218C12.0764 12.6336 12.1448 12.5379 12.216 12.4347L12.2197 12.238C12.2248 12.1711 12.2424 12.1323 12.2728 12.1217C12.301 12.0987 12.3197 12.0661 12.3288 12.0238C12.302 12.0072 12.2801 11.9954 12.2629 11.9884C12.2457 11.9814 12.2406 11.9506 12.2477 11.896L12.2447 11.8776L12.2529 11.562C12.2589 11.4036 12.2508 11.2567 12.2286 11.1212C12.178 10.8134 12.0696 10.617 11.9033 10.5321C11.7371 10.4473 11.5555 10.4394 11.3585 10.5087C11.3282 10.5193 11.2941 10.5313 11.2562 10.5446C11.2259 10.5553 11.1928 10.5734 11.1569 10.599C11.0907 10.6353 11.0256 10.6778 10.9614 10.7264C10.8973 10.7749 10.8293 10.8249 10.7576 10.8761L10.7349 10.8841C10.7046 10.8948 10.6801 10.9164 10.6614 10.949C10.6407 10.9693 10.621 10.9958 10.6023 11.0284C10.5043 11.1149 10.398 11.2239 10.2834 11.3554C10.2192 11.404 10.176 11.4583 10.1538 11.5182C10.1275 11.5534 10.1106 11.5724 10.1031 11.5751L10.1061 11.5935C10.0647 11.6342 10.0288 11.6598 9.9985 11.6704C9.98334 11.6758 9.9644 11.6824 9.94167 11.6904C9.91691 11.6861 9.89317 11.6879 9.87043 11.6959C9.88761 11.7029 9.89999 11.705 9.90757 11.7024C9.91515 11.6997 9.92374 11.7032 9.93334 11.7129C9.94698 11.7471 9.94345 11.7744 9.92275 11.7947C9.90961 11.8124 9.90128 11.8348 9.89775 11.8621L9.88639 11.8661C9.88084 11.8811 9.8677 11.8988 9.847 11.9191C9.83386 11.9367 9.82175 11.9605 9.81064 11.9904C9.74447 12.0267 9.68992 12.085 9.64699 12.1652C9.61165 12.2427 9.5811 12.3251 9.55536 12.4123L9.54399 12.4163L9.33114 12.8037C9.27862 12.8743 9.2357 12.9545 9.20238 13.0443C9.12411 13.2021 9.04685 13.366 8.97061 13.5361C8.89436 13.7062 8.81812 13.8762 8.74187 14.0463L8.71914 14.0543C8.68125 14.0676 8.66156 14.0941 8.66005 14.1337C8.6641 14.1583 8.6636 14.2041 8.65857 14.271L8.6472 14.275C8.63256 14.3322 8.61313 14.3846 8.58889 14.4322C8.5606 14.4552 8.54571 14.4865 8.5442 14.5261C8.54269 14.5657 8.53361 14.608 8.51695 14.6529L8.45863 14.8102C8.4263 14.8085 8.38917 14.802 8.34723 14.7907C8.31085 14.7644 8.27372 14.7579 8.23583 14.7712C8.23583 14.7712 8.23306 14.7787 8.2275 14.7937C8.2275 14.7937 8.22953 14.806 8.23357 14.8306C8.28106 14.827 8.32401 14.8444 8.36241 14.8831C8.40082 14.9217 8.40613 14.9784 8.37837 15.0533L8.3617 15.0982C8.33949 15.1581 8.30464 15.1899 8.25715 15.1936C8.21724 15.1946 8.18719 15.2312 8.167 15.3034C8.18418 15.3104 8.20413 15.3099 8.22686 15.3019C8.2496 15.2939 8.26602 15.3207 8.27614 15.3823C8.2504 15.4695 8.22465 15.5567 8.19891 15.6439C8.18074 15.7284 8.15878 15.8143 8.13304 15.9015C8.11083 15.9614 8.09341 16.0261 8.0808 16.0957C8.06616 16.1529 8.04293 16.2067 8.01112 16.257C8.00556 16.2719 8.00481 16.2917 8.00886 16.3164C8.01846 16.326 8.02048 16.3383 8.01493 16.3533L8.01797 16.3718L7.92033 16.875C7.88851 16.9253 7.86427 16.9729 7.84761 17.0178C7.83095 17.0627 7.82869 17.1221 7.84084 17.196C7.86305 17.1361 7.87517 17.1123 7.87719 17.1246L7.88023 17.1431C7.88428 17.1677 7.88075 17.195 7.86964 17.225C7.85651 17.2426 7.84818 17.2651 7.84465 17.2924L7.82424 17.534C7.79502 17.8439 7.78346 18.115 7.78958 18.3473C7.78256 18.5972 7.79626 18.8269 7.83066 19.0362C7.83118 19.0881 7.82412 19.1427 7.80948 19.2C7.8004 19.2422 7.81127 19.284 7.8421 19.3253C7.8613 19.3446 7.8757 19.3591 7.8853 19.3687C7.89288 19.366 7.90072 19.3893 7.90881 19.4386C7.91893 19.5002 7.9298 19.5419 7.94143 19.5639L7.95053 19.6193C7.9566 19.6563 7.9551 19.6959 7.94601 19.7381C7.93693 19.7804 7.93921 19.8187 7.95286 19.853C7.96246 19.8626 7.97863 19.8634 8.00136 19.8555C8.02207 19.8352 8.03824 19.836 8.04986 19.858L8.15145 20.0372C8.17823 20.0538 8.19945 20.0854 8.21513 20.132C8.2308 20.1786 8.24445 20.2129 8.25607 20.2349C8.27527 20.2542 8.29826 20.2721 8.32504 20.2888C8.3498 20.2931 8.369 20.3124 8.38265 20.3467C8.38467 20.359 8.38291 20.3727 8.37736 20.3876C8.37736 20.3876 8.37938 20.3999 8.38343 20.4246C8.41727 20.3866 8.41296 20.336 8.37051 20.2728C8.42407 20.3061 8.43216 20.3553 8.39479 20.4206C8.40995 20.4153 8.4251 20.4099 8.44026 20.4046C8.45339 20.387 8.46753 20.3755 8.48269 20.3702C8.51299 20.3595 8.54634 20.3673 8.58272 20.3936C8.72015 20.4495 8.86767 20.4693 9.02529 20.453C9.19251 20.4464 9.36705 20.4111 9.5489 20.3472C9.75349 20.2753 9.96818 20.1673 10.193 20.0232C10.4198 19.8913 10.6435 19.7411 10.8643 19.5723L10.8612 19.5539C10.8764 19.5485 10.8888 19.5507 10.8984 19.5603C10.9059 19.5577 10.9135 19.555 10.9211 19.5524C10.959 19.539 10.989 19.5024 11.0112 19.4425L11.1272 19.3432C11.1777 19.2603 11.2264 19.1911 11.2734 19.1355C11.3203 19.0799 11.3762 19.0538 11.4408 19.0571C11.458 19.0641 11.46 19.0764 11.4469 19.094C11.4393 19.0967 11.4375 19.1104 11.4416 19.135C11.4547 19.1173 11.4631 19.0949 11.4666 19.0676C11.4701 19.0403 11.4784 19.0178 11.4916 19.0002L11.5537 18.9393C11.6047 18.9083 11.6472 18.8739 11.681 18.8359C11.7128 18.7857 11.7494 18.7403 11.7908 18.6996L11.9037 18.5818C11.9209 18.5888 11.9371 18.5896 11.9522 18.5843C11.9825 18.5737 12.0032 18.5534 12.0143 18.5234C12.0234 18.4811 12.0401 18.4362 12.0643 18.3886C12.0719 18.386 12.0888 18.367 12.1151 18.3317C12.1489 18.2938 12.1876 18.2606 12.231 18.2323C12.2724 18.1917 12.3042 18.1415 12.3265 18.0816L12.3378 18.0776C12.4373 17.9514 12.533 17.8266 12.6249 17.7032C12.7169 17.5797 12.805 17.4575 12.8893 17.3367L13.1507 16.9518C13.1805 16.8892 13.2037 16.8355 13.2204 16.7905C13.237 16.7456 13.2643 16.7165 13.3022 16.7032L13.3105 16.6807C13.3494 16.5759 13.3951 16.4882 13.4476 16.4176C13.4981 16.3347 13.5372 16.2558 13.565 16.181C13.6115 16.0735 13.6498 16.0144 13.6802 16.0037C13.7029 15.9957 13.7183 16.0164 13.7264 16.0656C13.7365 16.1272 13.7249 16.2029 13.6916 16.2928C13.6396 16.4153 13.582 16.5527 13.5189 16.7052C13.4558 16.8576 13.3823 17.0202 13.2985 17.1929C13.2687 17.2555 13.2321 17.3009 13.1887 17.3292C13.1528 17.3548 13.1334 17.4073 13.1303 17.4865C13.093 17.5517 13.0518 17.6183 13.0069 17.6862C12.9695 17.7514 12.9246 17.8193 12.872 17.8899C12.8139 17.9754 12.7521 18.0623 12.6864 18.1505C12.6283 18.236 12.5627 18.3242 12.4895 18.4151C12.4667 18.4231 12.4402 18.4324 12.4099 18.443C12.3851 18.4387 12.3614 18.4405 12.3387 18.4485C12.2856 18.4672 12.2508 18.4989 12.2341 18.5439C12.2341 18.5439 12.2351 18.55 12.2371 18.5623C12.2371 18.5623 12.243 18.5733 12.2546 18.5953C12.2697 18.59 12.2849 18.5846 12.3001 18.5793C12.3132 18.5617 12.3283 18.5564 12.3455 18.5633C12.3455 18.5633 12.3465 18.5695 12.3486 18.5818C12.3506 18.5941 12.344 18.6029 12.3289 18.6083C12.3026 18.6436 12.2819 18.6639 12.2667 18.6692L12.2698 18.6877L12.1993 18.771L12.1879 18.775C12.1657 18.8349 12.141 18.8306 12.1137 18.762C12.093 18.7823 12.0743 18.815 12.0576 18.8599C12.0485 18.9022 12.0347 18.9396 12.016 18.9722L11.9455 19.0556C11.9172 19.0786 11.8889 19.1015 11.8607 19.1245C11.8303 19.1351 11.8107 19.1616 11.8016 19.2039L11.7902 19.2079C11.7639 19.2431 11.7301 19.2811 11.6887 19.3217C11.6528 19.3473 11.618 19.3791 11.5841 19.4171L11.5872 19.4355L11.5303 19.4555C11.4924 19.4688 11.4498 19.4773 11.4023 19.481C11.3528 19.4723 11.3053 19.476 11.2598 19.4919C11.281 19.5236 11.3106 19.5327 11.3485 19.5194C11.3884 19.5184 11.4048 19.5452 11.3978 19.5998C11.3998 19.6121 11.397 19.6196 11.3894 19.6222L11.1152 19.8554L11.1182 19.8739C11.0899 19.8968 11.0568 19.915 11.0189 19.9283C10.9906 19.9512 10.9634 19.9804 10.9371 20.0156C10.6618 20.2426 10.3843 20.4314 10.1044 20.5818C9.82458 20.7322 9.55963 20.8514 9.30958 20.9393L9.29821 20.9433ZM10.8373 14.58C10.8429 14.565 10.857 14.5535 10.8797 14.5455C10.908 14.5226 10.9287 14.5022 10.9419 14.4846L11.1858 14.3598C11.1934 14.3571 11.2 14.3483 11.2055 14.3333C11.2111 14.3184 11.2177 14.3095 11.2252 14.3069C11.2308 14.2919 11.2411 14.2817 11.2563 14.2764C11.2861 14.2138 11.304 14.201 11.3101 14.238C11.3141 14.2626 11.3283 14.2511 11.3525 14.2035C11.3581 14.1886 11.3684 14.1784 11.3836 14.1731C11.3947 14.1431 11.404 14.1268 11.4116 14.1241C11.4247 14.1065 11.4341 14.0902 11.4396 14.0752C11.4528 14.0576 11.4593 14.0488 11.4593 14.0488C11.4573 14.0364 11.4639 14.0276 11.479 14.0223L11.4904 14.0183C11.5056 14.013 11.529 13.9852 11.5609 13.9349C11.5927 13.8847 11.6086 13.8595 11.6086 13.8595C11.6162 13.8569 11.6217 13.8419 11.6252 13.8146C11.6363 13.7847 11.6457 13.7684 11.6533 13.7657C11.6588 13.7507 11.6692 13.7406 11.6843 13.7352C11.6975 13.7176 11.703 13.7026 11.701 13.6903C11.7141 13.6727 11.7273 13.655 11.7404 13.6374C11.7535 13.6197 11.7639 13.6096 11.7714 13.6069C11.777 13.592 11.7891 13.5682 11.8078 13.5355C11.8341 13.5003 11.8462 13.4765 11.8442 13.4641C11.8553 13.4342 11.8674 13.4104 11.8805 13.3928C11.9012 13.3725 11.9144 13.3548 11.9199 13.3398C11.9406 13.3195 11.9835 13.2393 12.0487 13.0992C12.1118 12.9468 12.1605 12.7799 12.1948 12.5985C12.2059 12.5685 12.1769 12.6113 12.1077 12.7268C12.0441 12.8273 12.0095 12.885 12.0039 12.9C11.9963 12.9027 11.9842 12.9265 11.9676 12.9714C11.9489 13.004 11.9358 13.0217 11.9282 13.0243L11.9115 13.0693L11.8774 13.0812L11.8691 13.1037C11.8691 13.1037 11.856 13.1213 11.8297 13.1566C11.8221 13.1593 11.809 13.1769 11.7903 13.2095C11.7716 13.2422 11.7585 13.2598 11.7509 13.2625C11.7433 13.2651 11.7368 13.2739 11.7312 13.2889C11.7236 13.2916 11.7161 13.2942 11.7085 13.2969C11.6842 13.3445 11.6448 13.3974 11.5903 13.4557C11.5433 13.5113 11.5085 13.543 11.4857 13.551L11.4744 13.555C11.4592 13.5603 11.4461 13.578 11.435 13.6079L11.4267 13.6304L11.3729 13.6688C11.3597 13.6865 11.3428 13.7055 11.3221 13.7258C11.3014 13.7461 11.2835 13.7589 11.2683 13.7642C11.2628 13.7792 11.26 13.7867 11.26 13.7867C11.258 13.7744 11.2569 13.7682 11.2569 13.7682C11.2458 13.7982 11.2289 13.8171 11.2062 13.8251C11.1986 13.8278 11.1948 13.8291 11.1948 13.8291C11.1928 13.8168 11.188 13.812 11.1804 13.8146C11.1728 13.8173 11.1607 13.8411 11.1441 13.886L11.0872 13.906C11.0892 13.9183 11.0827 13.9271 11.0675 13.9324L11.0562 13.9364C11.0486 13.9391 11.0382 13.9493 11.0251 13.9669C11.012 13.9845 11.0016 13.9947 10.994 13.9974C10.9865 14 10.9837 14.0075 10.9857 14.0198C10.9857 14.0198 10.9819 14.0211 10.9743 14.0238C10.9723 14.0115 10.9675 14.0067 10.9599 14.0093L10.9486 14.0133L10.8864 14.0742L10.8523 14.0862C10.8296 14.0942 10.8021 14.0974 10.7698 14.0957C10.745 14.0914 10.7185 14.1007 10.6902 14.1237C10.6826 14.1263 10.6798 14.1338 10.6819 14.1461C10.6819 14.1461 10.6781 14.1475 10.6705 14.1501L10.6478 14.1581C10.6478 14.1581 10.644 14.1594 10.6364 14.1621C10.6364 14.1621 10.6336 14.1696 10.6281 14.1846C10.626 14.1723 10.6212 14.1674 10.6137 14.1701L10.5455 14.1941C10.5434 14.1817 10.5386 14.1769 10.5311 14.1796C10.5235 14.1822 10.5169 14.1911 10.5114 14.206C10.5038 14.2087 10.4962 14.2114 10.4886 14.214C10.4432 14.23 10.405 14.2174 10.3742 14.1761C10.3434 14.1348 10.2997 14.1372 10.2431 14.1831C10.2411 14.1708 10.2363 14.1659 10.2287 14.1686C10.2191 14.159 10.2133 14.148 10.2113 14.1357L10.1999 14.1397C10.1888 14.1696 10.1842 14.1907 10.1863 14.2031C10.1807 14.218 10.1838 14.2365 10.1954 14.2585C10.2126 14.2655 10.2194 14.2826 10.2159 14.3099C10.2255 14.3195 10.2323 14.3367 10.2363 14.3613C10.2459 14.371 10.2545 14.3745 10.2621 14.3718C10.2682 14.4087 10.2856 14.4417 10.3144 14.4706C10.3164 14.483 10.3222 14.4939 10.3318 14.5036C10.349 14.5106 10.3538 14.5154 10.3462 14.5181C10.3558 14.5277 10.3644 14.5312 10.372 14.5286C10.3796 14.5259 10.3854 14.5369 10.3894 14.5615L10.4327 14.6049L10.444 14.6009C10.5203 14.6262 10.5946 14.6392 10.6668 14.6399C10.7446 14.6256 10.8014 14.6056 10.8373 14.58Z" fill="#991414"/>
</g>
<g filter="url(#filter3_f_184_9)">
<path d="M12.2188 9.23236H11.0393C10.9695 8.71216 10.8474 8.25516 10.673 7.86137C10.5018 7.46757 10.2925 7.13698 10.0452 6.86959C9.80105 6.59733 9.52994 6.39314 9.23188 6.25701C8.93382 6.12089 8.62308 6.05282 8.29966 6.05282C7.70988 6.05282 7.17559 6.28132 6.6968 6.73832C6.22117 7.19532 5.84226 7.86866 5.56005 8.75835C5.28102 9.64803 5.1415 10.7395 5.1415 12.0327C5.1415 13.3259 5.28102 14.4173 5.56005 15.307C5.84226 16.1967 6.22117 16.87 6.6968 17.327C7.17559 17.784 7.70988 18.0125 8.29966 18.0125C8.62308 18.0125 8.93382 17.9445 9.23188 17.8084C9.52994 17.6722 9.80105 17.4705 10.0452 17.2031C10.2925 16.9308 10.5018 16.5978 10.673 16.204C10.8474 15.8053 10.9695 15.3483 11.0393 14.833H12.2188C12.13 15.5963 11.9683 16.2794 11.7337 16.8822C11.499 17.485 11.2073 17.998 10.8585 18.4209C10.5097 18.839 10.1181 19.1575 9.68373 19.3762C9.25249 19.595 8.79114 19.7044 8.29966 19.7044C7.4689 19.7044 6.73009 19.3933 6.08324 18.771C5.43639 18.1487 4.92747 17.2638 4.55648 16.1165C4.18549 14.9691 4 13.6079 4 12.0327C4 10.4575 4.18549 9.09623 4.55648 7.94888C4.92747 6.80152 5.43639 5.9167 6.08324 5.2944C6.73009 4.67211 7.4689 4.36096 8.29966 4.36096C8.79114 4.36096 9.25249 4.47035 9.68373 4.68913C10.1181 4.9079 10.5097 5.22877 10.8585 5.65174C11.2073 6.06984 11.499 6.58032 11.7337 7.18316C11.9683 7.78115 12.13 8.46421 12.2188 9.23236Z" fill="url(#paint2_linear_184_9)"/>
</g>
<path d="M12.4974 8.8714H11.3179C11.2481 8.3512 11.126 7.8942 10.9516 7.50041C10.7804 7.10661 10.5711 6.77602 10.3238 6.50862C10.0796 6.23637 9.80854 6.03218 9.51048 5.89605C9.21242 5.75993 8.90168 5.69186 8.57825 5.69186C7.98848 5.69186 7.45419 5.92036 6.97539 6.37736C6.49977 6.83436 6.12085 7.5077 5.83865 8.39738C5.55961 9.28707 5.4201 10.3785 5.4201 11.6717C5.4201 12.9649 5.55961 14.0564 5.83865 14.9461C6.12085 15.8357 6.49977 16.5091 6.97539 16.9661C7.45419 17.4231 7.98848 17.6516 8.57825 17.6516C8.90168 17.6516 9.21242 17.5835 9.51048 17.4474C9.80854 17.3113 10.0796 17.1095 10.3238 16.8421C10.5711 16.5699 10.7804 16.2368 10.9516 15.843C11.126 15.4444 11.2481 14.9874 11.3179 14.472H12.4974C12.4086 15.2353 12.2469 15.9184 12.0123 16.5212C11.7776 17.1241 11.4859 17.637 11.1371 18.06C10.7883 18.4781 10.3967 18.7965 9.96232 19.0153C9.53109 19.2341 9.06973 19.3434 8.57825 19.3434C7.74749 19.3434 7.00869 19.0323 6.36184 18.41C5.71498 17.7877 5.20607 16.9029 4.83508 15.7555C4.46409 14.6082 4.27859 13.2469 4.27859 11.6717C4.27859 10.0965 4.46409 8.73527 4.83508 7.58792C5.20607 6.44056 5.71498 5.55574 6.36184 4.93344C7.00869 4.31115 7.74749 4 8.57825 4C9.06973 4 9.53109 4.10939 9.96232 4.32816C10.3967 4.54694 10.7883 4.86781 11.1371 5.29077C11.4859 5.70888 11.7776 6.21935 12.0123 6.8222C12.2469 7.42019 12.4086 8.10325 12.4974 8.8714Z" fill="url(#paint3_linear_184_9)"/>
<defs>
<filter id="filter0_f_184_9" x="5.53964" y="4.93823" width="18.1109" height="17.8188" filterUnits="userSpaceOnUse" color-interpolation-filters="sRGB">
<feFlood flood-opacity="0" result="BackgroundImageFix"/>
<feBlend mode="normal" in="SourceGraphic" in2="BackgroundImageFix" result="shape"/>
<feGaussianBlur stdDeviation="2" result="effect1_foregroundBlur_184_9"/>
</filter>
<filter id="filter1_f_184_9" x="2.95886" y="6.13782" width="14.4747" height="18.8529" filterUnits="userSpaceOnUse" color-interpolation-filters="sRGB">
<feFlood flood-opacity="0" result="BackgroundImageFix"/>
<feBlend mode="normal" in="SourceGraphic" in2="BackgroundImageFix" result="shape"/>
<feGaussianBlur stdDeviation="2" result="effect1_foregroundBlur_184_9"/>
</filter>
<filter id="filter2_d_184_9" x="7.25525" y="10.1378" width="18.4747" height="18.8529" filterUnits="userSpaceOnUse" color-interpolation-filters="sRGB">
<feFlood flood-opacity="0" result="BackgroundImageFix"/>
<feColorMatrix in="SourceAlpha" type="matrix" values="0 0 0 0 0 0 0 0 0 0 0 0 0 0 0 0 0 0 127 0" result="hardAlpha"/>
<feOffset dx="8" dy="4"/>
<feGaussianBlur stdDeviation="2"/>
<feComposite in2="hardAlpha" operator="out"/>
<feColorMatrix type="matrix" values="0 0 0 0 0 0 0 0 0 0 0 0 0 0 0 0 0 0 0.25 0"/>
<feBlend mode="normal" in2="BackgroundImageFix" result="effect1_dropShadow_184_9"/>
<feBlend mode="normal" in="SourceGraphic" in2="effect1_dropShadow_184_9" result="shape"/>
</filter>
<filter id="filter3_f_184_9" x="0" y="0.360962" width="16.2188" height="23.3434" filterUnits="userSpaceOnUse" color-interpolation-filters="sRGB">
<feFlood flood-opacity="0" result="BackgroundImageFix"/>
<feBlend mode="normal" in="SourceGraphic" in2="BackgroundImageFix" result="shape"/>
<feGaussianBlur stdDeviation="2" result="effect1_foregroundBlur_184_9"/>
</filter>
<linearGradient id="paint0_linear_184_9" x1="15.4525" y1="7.55504" x2="11.6976" y2="18.7797" gradientUnits="userSpaceOnUse">
<stop stop-color="#FF77EF" stop-opacity="0"/>
<stop offset="0.905" stop-color="#D84DC8"/>
</linearGradient>
<linearGradient id="paint1_linear_184_9" x1="15.0752" y1="7.14574" x2="11.3204" y2="18.3704" gradientUnits="userSpaceOnUse">
<stop stop-color="#FF77EF" stop-opacity="0"/>
<stop offset="0.905" stop-color="#FF77EF"/>
</linearGradient>
<linearGradient id="paint2_linear_184_9" x1="8.10941" y1="4.36096" x2="8.10941" y2="19.7044" gradientUnits="userSpaceOnUse">
<stop stop-color="#CA0000"/>
<stop offset="0.385" stop-color="#E30202"/>
<stop offset="0.72" stop-color="#D56EC9"/>
<stop offset="0.82" stop-color="#DA53B1"/>
<stop offset="0.97" stop-color="#C21A74"/>
</linearGradient>
<linearGradient id="paint3_linear_184_9" x1="8.388" y1="4" x2="8.388" y2="19.3434" gradientUnits="userSpaceOnUse">
<stop stop-color="#FF0202"/>
<stop offset="0.385" stop-color="#E30202"/>
<stop offset="0.71" stop-color="#D033A0"/>
<stop offset="0.82" stop-color="#CC3FBC"/>
<stop offset="0.97" stop-color="#B51068"/>
</linearGradient>
</defs>
</svg>
